<svg height="512pt" viewBox="-22 0 512 512" width="512pt" xmlns="http://www.w3.org/2000/svg"><path d="m131 427.667969h30v56.832031h-30zm0 0" fill="#515759"/><path d="m265 427.667969h30v56.832031h-30zm0 0" fill="#515759"/><path d="m418.5 240c0 113.496094-92.003906 205.5-205.5 205.5s-205.5-92.003906-205.5-205.5c0-113.492188 92.003906-205.5 205.5-205.5s205.5 92.007812 205.5 205.5zm0 0" fill="#79b6d8"/><path d="m334.085938 474.5h-242.171876c-8.609374 0-16.25 5.511719-18.972656 13.675781l-3.25 9.742188c-1.078125 3.238281 1.332032 6.582031 4.746094 6.582031h277.125c3.414062 0 5.824219-3.34375 4.742188-6.582031l-3.246094-9.742188c-2.722656-8.167969-10.367188-13.675781-18.972656-13.675781zm0 0" fill="#ccc"/><path d="m213 416c-97.203125 0-176-78.796875-176-176 0-97.199219 78.796875-176 176-176s176 78.800781 176 176c0 97.203125-78.796875 176-176 176zm0 0" fill="#d0e8ef"/><path d="m460.5 102c0 52.191406-42.308594 94.5-94.5 94.5s-94.5-42.308594-94.5-94.5 42.308594-94.5 94.5-94.5 94.5 42.308594 94.5 94.5zm0 0" fill="#7bd6a4"/><path d="m408.25 150c-1.867188 0-3.734375-.691406-5.1875-2.085938l-31.0625-29.789062c-2.988281-2.863281-3.089844-7.613281-.226562-10.601562 2.867187-2.992188 7.617187-3.09375 10.605468-.226563l31.0625 29.789063c2.988282 2.867187 3.089844 7.613281.222656 10.605468-1.472656 1.535156-3.441406 2.308594-5.414062 2.308594zm0 0" fill="#429660"/><path d="m366 97.667969c-4.144531 0-7.5-3.355469-7.5-7.5v-47.667969c0-4.140625 3.355469-7.5 7.5-7.5s7.5 3.359375 7.5 7.5v47.667969c0 4.140625-3.355469 7.5-7.5 7.5zm0 0" fill="#429660"/><path d="m386.5 102c0 11.324219-9.179688 20.5-20.5 20.5s-20.5-9.175781-20.5-20.5c0-11.320312 9.179688-20.5 20.5-20.5s20.5 9.179688 20.5 20.5zm0 0" fill="#d0e8ef"/><path d="m388.992188 240.003906c0 48.597656-19.699219 92.597656-51.546876 124.449219-31.851562 31.851563-75.851562 51.550781-124.453124 51.550781-5.046876 0-10.058594-.210937-15-.632812 42.621093-3.597656 80.910156-22.378906 109.453124-50.917969 31.847657-31.851563 51.546876-75.851563 51.546876-124.449219 0-15.320312-1.957032-30.179687-5.636719-44.339844 4.128906.550782 8.347656.839844 12.636719.839844 5.863281 0 11.601562-.53125 17.171874-1.5625 3.808594 14.382813 5.828126 29.480469 5.828126 45.0625zm0 0" fill="#94ccd3"/><path d="m460.492188 102.003906c0 46.328125-33.339844 84.867188-77.328126 92.9375-5.570312 1.03125-11.308593 1.5625-17.171874 1.5625-4.289063 0-8.507813-.289062-12.636719-.839844-.0625-.242187-.121094-.480468-.191407-.722656 9.671876-1.769531 18.820313-5.019531 27.210938-9.5 29.820312-15.878906 50.117188-47.289062 50.117188-83.4375 0-47.082031-34.4375-86.132812-79.5-93.3125 4.882812-.789062 9.890624-1.1875 15-1.1875 52.191406 0 94.5 42.308594 94.5 94.5zm0 0" fill="#28af5f"/><path d="m351.554688 504.5h-30c3.421874 0 5.832031-3.339844 4.75-6.578125l-3.25-9.742187c-2.71875-8.167969-10.367188-13.679688-18.980469-13.679688h30c8.613281 0 16.261719 5.511719 18.980469 13.679688l3.25 9.742187c1.082031 3.238281-1.328126 6.578125-4.75 6.578125zm0 0" fill="#a0a0a0"/><path d="m468 102c0-56.242188-45.757812-102-102-102-32.765625 0-61.964844 15.53125-80.640625 39.613281-23.160156-8.367187-47.480469-12.613281-72.359375-12.613281-117.449219 0-213 95.550781-213 213 0 85.496094 50.644531 159.378906 123.5 193.253906v33.746094h-31.585938c-11.851562 0-22.339843 7.558594-26.089843 18.804688l-3.246094 9.742187c-1.265625 3.800781-.625 8.011719 1.71875 11.261719s6.132813 5.191406 10.140625 5.191406h86.0625c4.144531 0 7.5-3.359375 7.5-7.5s-3.355469-7.5-7.5-7.5h-82.59375l2.148438-6.453125c1.707031-5.113281 6.472656-8.546875 11.859374-8.546875h242.171876c5.386718 0 10.152343 3.433594 11.855468 8.546875l2.152344 6.453125h-152.59375c-4.144531 0-7.5 3.359375-7.5 7.5s3.355469 7.5 7.5 7.5h156.0625c4.007812 0 7.796875-1.941406 10.140625-5.191406s2.984375-7.460938 1.71875-11.261719l-3.246094-9.742187c-3.75-11.246094-14.238281-18.804688-26.089843-18.804688h-31.585938v-33.746094c72.855469-33.875 123.5-107.757812 123.5-193.253906 0-17.375-2.121094-34.628906-6.257812-51.34375 28.945312-18.019531 48.257812-50.121094 48.257812-86.65625zm-169 79v118c0 4.140625 3.355469 7.5 7.5 7.5s7.5-3.359375 7.5-7.5v-109.285156c15.238281 9.066406 33.019531 14.285156 52 14.285156 3.890625 0 7.726562-.226562 11.503906-.652344 2.652344 11.972656 3.996094 24.277344 3.996094 36.652344 0 92.910156-75.589844 168.5-168.5 168.5s-168.5-75.589844-168.5-168.5 75.589844-168.5 168.5-168.5c18.292969 0 36.21875 2.910156 53.367188 8.636719-1.546876 7.046875-2.367188 14.359375-2.367188 21.863281 0 30.746094 13.675781 58.355469 35.257812 77.074219-.164062.613281-.257812 1.257812-.257812 1.925781zm-160.5 258.542969c4.917969 1.84375 9.917969 3.507812 15 4.988281v22.46875h-15zm74.5 13.457031c15.257812 0 30.140625-1.625 44.5-4.691406v18.691406h-89v-18.691406c14.359375 3.066406 29.242188 4.691406 44.5 4.691406zm74.5 14h-15v-22.46875c5.082031-1.480469 10.082031-3.144531 15-4.988281zm123.5-227c0 109.179688-88.820312 198-198 198s-198-88.820312-198-198 88.820312-198 198-198c21.90625 0 43.34375 3.542969 63.832031 10.523438-2.359375 4.234374-4.425781 8.65625-6.171875 13.230468-18.546875-6.136718-37.90625-9.253906-57.660156-9.253906-101.183594 0-183.5 82.316406-183.5 183.5s82.316406 183.5 183.5 183.5 183.5-82.316406 183.5-183.5c0-13.304688-1.433594-26.539062-4.253906-39.429688 4.742187-1.265624 9.351562-2.859374 13.800781-4.765624 3.289063 14.425781 4.953125 29.261718 4.953125 44.195312zm-45-51c-47.972656 0-87-39.027344-87-87s39.027344-87 87-87 87 39.027344 87 87-39.027344 87-87 87zm0 0"/><path d="m390.660156 115.25c2.128906-3.945312 3.339844-8.460938 3.339844-13.25 0-12.839844-8.691406-23.683594-20.5-26.972656v-32.527344c0-4.140625-3.355469-7.5-7.5-7.5s-7.5 3.359375-7.5 7.5v32.527344c-11.808594 3.289062-20.5 14.132812-20.5 26.972656 0 15.4375 12.5625 28 28 28 5.210938 0 10.09375-1.4375 14.277344-3.925781l22.78125 21.839843c1.453125 1.394532 3.324218 2.085938 5.1875 2.085938 1.976562 0 3.945312-.773438 5.417968-2.308594 2.863282-2.992187 2.765626-7.738281-.226562-10.605468zm-37.660156-13.25c0-7.167969 5.832031-13 13-13s13 5.832031 13 13-5.832031 13-13 13-13-5.832031-13-13zm0 0"/><path d="m203 292h-71v-10.773438c0-2.253906 1.226562-4.453124 3.191406-5.730468l64.953125-42.1875c6.171875-4.011719 9.855469-10.855469 9.855469-18.308594v-20.320312c0-11.953126-9.726562-21.679688-21.679688-21.679688h-54.980468c-11.765625 0-21.339844 9.574219-21.339844 21.339844v13.660156c0 4.140625 3.355469 7.5 7.5 7.5s7.5-3.359375 7.5-7.5v-13.660156c0-3.496094 2.84375-6.339844 6.339844-6.339844h54.980468c3.683594 0 6.679688 2.996094 6.679688 6.679688v20.320312c0 2.355469-1.132812 4.5-3.027344 5.730469l-64.953125 42.1875c-6.273437 4.078125-10.019531 10.921875-10.019531 18.308593v13.273438c0 6.894531 5.605469 12.5 12.5 12.5h73.5c4.144531 0 7.5-3.359375 7.5-7.5s-3.355469-7.5-7.5-7.5zm0 0"/><path d="m271.5 238h-24c-1.378906 0-2.5-1.121094-2.5-2.5v-54.5c0-4.140625-3.355469-7.5-7.5-7.5s-7.5 3.359375-7.5 7.5v54.5c0 9.648438 7.851562 17.5 17.5 17.5h24c4.144531 0 7.5-3.359375 7.5-7.5s-3.355469-7.5-7.5-7.5zm0 0"/></svg>