<svg id="Capa_1" enable-background="new 0 0 512 512" height="512" viewBox="0 0 512 512" width="512" xmlns="http://www.w3.org/2000/svg"><g><g><path d="m511.995 254.307c.515 79.673-35.373 150.988-92.014 198.273l-16.053 5.817c-95.571 34.633-200.264 34.635-295.836.006l-16.072-5.823c-56.24-46.95-92.02-117.59-92.02-196.58 0-141.191 114.313-255.693 255.433-255.999 141.411-.307 255.647 112.897 256.562 254.306z" fill="#b6e337"/><path d="m512 256c0 78.99-35.78 149.63-92.02 196.59v-.01l-16.053 5.817c-95.571 34.633-200.264 34.635-295.836.006l-16.071-5.823v.01c-56.24-46.96-92.02-117.6-92.02-196.59 0-46.22 12.25-89.57 33.68-127 44.12 77.07 127.16 129 222.32 129s178.21-51.93 222.32-129c21.43 37.43 33.68 80.78 33.68 127z" fill="#6cdc2d"/></g><g><g><path d="m91.423 135.943h82.292v176.407h-82.292z" fill="#c55732"/><path d="m107.391 135.943h66.324v176.407h-66.324z" fill="#a63917"/><path d="m132.569 135.943h41.146v176.407h-41.146z" fill="#83250d"/><g><path d="m420.61 268.27v183.79c-.21.18-.42.35-.63.52-5.9 4.93-12.02 9.6-18.36 13.98-41.33 28.65-91.51 45.44-145.61 45.44h-.01c-28.79 0-56.46-4.75-82.29-13.52-30.4-10.32-58.23-26.19-82.29-46.4v-183.81l82.29-80.81 82.3-80.83z" fill="#f79f63"/><path d="m420.61 268.27v183.79c-44.5 37.4-101.92 59.94-164.6 59.94h-.01c-28.79 0-56.46-4.75-82.29-13.52v-311.02l82.3-80.83z" fill="#f4863d"/><path d="m420.61 268.27v183.79c-44.5 37.4-101.92 59.94-164.6 59.94v-405.37z" fill="#c55732"/><path d="m91.423 333.726h329.183v13.986h-329.183z" fill="#f4863d"/><path d="m173.715 333.726h246.891v13.986h-246.891z" fill="#c55732"/><path d="m256.014 333.726h164.592v13.986h-164.592z" fill="#a63917"/><path d="m91.423 393.151h329.183v13.986h-329.183z" fill="#f4863d"/><path d="m173.715 393.151h246.891v13.986h-246.891z" fill="#c55732"/><path d="m256.014 393.151h164.592v13.986h-164.592z" fill="#a63917"/><path d="m419.98 452.58c-5.9 4.93-12.02 9.6-18.36 13.98h-291.24c-6.33-4.39-12.46-9.06-18.36-13.98z" fill="#f4863d"/><path d="m419.98 452.58c-5.9 4.93-12.02 9.6-18.36 13.98h-227.91v-13.98z" fill="#c55732"/><path d="m419.98 452.58c-5.9 4.93-12.02 9.6-18.36 13.98h-145.61v-13.98z" fill="#a63917"/><path d="m420.606 268.27v44.081h-329.183v-44.081l82.292-80.814 82.299-80.821z" fill="#f4863d"/><path d="m420.606 268.27v44.081h-246.891v-124.895l82.299-80.821z" fill="#c55732"/><path d="m420.606 268.27v44.081h-164.592v-205.716z" fill="#a63917"/><path d="m472.422 309.225-27.146 27.131-189.255-189.29-.007.007-189.29 189.241-27.146-27.146 216.436-216.372.014-.014z" fill="#83250d"/><g><path d="m299.8 417.02v91.24c-14.23 2.46-28.86 3.74-43.79 3.74h-.01c-14.93 0-29.55-1.28-43.78-3.73v-91.25c0-24.19 19.61-43.8 43.79-43.8 24.19 0 43.79 19.61 43.79 43.8z" fill="#a63917"/><path d="m299.8 417.02v91.24c-14.23 2.46-28.86 3.74-43.79 3.74v-138.78c24.19 0 43.79 19.61 43.79 43.8z" fill="#83250d"/></g><ellipse cx="232.167" cy="468.155" fill="#ffe853" rx="8.573" ry="8.573" transform="matrix(.897 -.442 .442 .897 -182.85 150.616)"/><path d="m232.167 459.582v17.146c4.735 0 8.573-3.838 8.573-8.573s-3.838-8.573-8.573-8.573z" fill="#fed110"/><path d="m236.393 468.155c0 2.334-1.892 4.226-4.226 4.226s-4.226-1.892-4.226-4.226 1.892-4.226 4.226-4.226 4.226 1.892 4.226 4.226z" fill="#ff9f00"/><path d="m232.167 463.929v8.452c2.334 0 4.226-1.892 4.226-4.226s-1.892-4.226-4.226-4.226z" fill="#ec781b"/><g><g><g><path d="m175.801 430.701h-48.301v-33.323c0-13.338 10.813-24.15 24.15-24.15 13.338 0 24.15 10.813 24.15 24.15v33.323z" fill="#fff"/><path d="m175.805 397.379v33.319h-24.155v-57.473c6.668 0 12.707 2.701 17.083 7.078 4.371 4.37 7.072 10.408 7.072 17.076z" fill="#d1f6ff"/><path d="m127.5 397.375v33.326h-24.15v-51.861c0-3.264 3.097-5.642 6.25-4.799 10.309 2.754 17.9 12.158 17.9 23.334z" fill="#c55732"/><path d="m175.801 397.375v33.326h24.15v-51.861c0-3.264-3.097-5.642-6.25-4.799-10.31 2.754-17.9 12.158-17.9 23.334z" fill="#a63917"/></g><path d="m103.35 430.701h96.601v21.874h-96.601z" fill="#83250d"/></g><g><g><path d="m384.53 397.379v33.319h-48.302v-33.319c0-13.336 10.811-24.155 24.147-24.155 6.668 0 12.707 2.701 17.083 7.078 4.37 4.371 7.072 10.409 7.072 17.077z" fill="#fff"/><path d="m384.53 397.379v33.319h-24.155v-57.473c6.668 0 12.707 2.701 17.083 7.078 4.37 4.37 7.072 10.408 7.072 17.076z" fill="#d1f6ff"/><path d="m336.227 397.375v33.326h-24.15v-51.861c0-3.264 3.097-5.642 6.25-4.799 10.31 2.754 17.9 12.158 17.9 23.334z" fill="#a63917"/><path d="m384.528 397.375v33.326h24.15v-51.861c0-3.264-3.097-5.642-6.25-4.799-10.309 2.754-17.9 12.158-17.9 23.334z" fill="#83250d"/></g><path d="m312.077 430.701h96.601v21.874h-96.601z" fill="#541c10"/></g></g><g><g><path d="m248.943 212.226v26.94h-33.304c5.494-13.993 18.059-24.444 33.304-26.94z" fill="#fff"/><path d="m222.243 253.308h26.7v27.52h-26.7z" fill="#fff"/><g fill="#d1f6ff"><path d="m296.389 239.166h-33.304v-26.94c9.15 1.492 17.331 5.848 23.596 12.127 4.186 4.186 7.516 9.213 9.708 14.813z"/><path d="m263.085 253.308h26.707v27.52h-26.707z"/></g></g></g><g><path d="m308.898 253.308h-19.106c-.184-3.67-.948-7.248-2.284-10.642-.467-1.202-1.004-2.376-1.612-3.5-1.563-2.963-3.557-5.657-5.968-8.061-5.035-5.049-11.391-8.316-18.378-9.461-1.824-.304-3.684-.452-5.537-.452-1.86 0-3.705.148-5.508.452-10.423 1.711-19.466 8.287-24.367 17.522-.601 1.124-1.138 2.284-1.612 3.486-1.344 3.408-2.107 6.986-2.284 10.656h-19.112c.007-.12.007-.233.014-.354.177-4.716.976-9.341 2.376-13.788.368-1.174.785-2.341 1.237-3.493 6.781-17.274 22.359-29.875 40.644-32.866 2.807-.467 5.706-.7 8.612-.7 2.899 0 5.805.233 8.634.7 10.946 1.789 20.909 6.908 28.793 14.799 5.19 5.197 9.178 11.278 11.837 18.081.453 1.145.863 2.305 1.23 3.479 1.4 4.434 2.199 9.058 2.376 13.774.008.121.008.248.015.368z" fill="#83250d"/></g><path d="m203.13 280.829h105.768v18.781h-105.768z" fill="#83250d"/><g fill="#541c10"><path d="m261.551 221.644c-1.824-.304-3.684-.452-5.537-.452v-19.085c2.899 0 5.805.233 8.634.7 10.946 1.789 20.909 6.908 28.793 14.799 5.19 5.197 9.178 11.278 11.837 18.081.453 1.145.863 2.305 1.23 3.479 1.4 4.434 2.199 9.058 2.376 13.774.007.12.007.247.014.368h-19.106c-.184-3.67-.948-7.248-2.284-10.642-.467-1.202-1.004-2.376-1.612-3.5-1.563-2.963-3.557-5.657-5.968-8.061-5.034-5.048-11.391-8.315-18.377-9.461z"/><path d="m256.014 280.829h52.884v18.781h-52.884z"/></g></g><path d="m82.244 118.344h100.649v35.192h-100.649z" fill="#fff"/><path d="m107.391 118.344h75.502v35.192h-75.502z" fill="#d1f6ff"/><g><g><path d="m281.94 450.712c2.576 0 4.664-2.088 4.664-4.664v-28.113c0-8.439-3.419-16.089-8.96-21.63-5.529-5.541-13.18-8.96-21.63-8.96-16.901 0-30.59 13.701-30.59 30.59v28.113c0 2.576 2.088 4.664 4.664 4.664z" fill="#fff"/></g><path d="m281.94 450.712c2.576 0 4.664-2.088 4.664-4.664v-28.113c0-8.439-3.419-16.089-8.96-21.63-5.529-5.541-13.18-8.96-21.63-8.96v63.368h25.926z" fill="#d1f6ff"/></g><path d="m132.569 118.344h50.324v35.192h-50.324z" fill="#8fc8f5"/><path d="m472.422 309.225-27.146 27.131-189.255-189.29-.007.007v-54.277l.014-.014z" fill="#541c10"/></g><g><path d="m320.539 68.353c.001-.085.006-.168.006-.253 0-15.525-12.586-28.111-28.111-28.111-3.688 0-7.207.718-10.434 2.009-6.234-11.167-18.161-18.724-31.859-18.724-17.788 0-32.593 12.739-35.811 29.59-.959-.138-1.939-.213-2.936-.213-9.671 0-17.774 6.695-19.94 15.702z" fill="#fff"/><path d="m293.112 68.353c0-.049.004-.097.004-.146 0-8.927-7.237-16.164-16.164-16.164-2.121 0-4.144.413-6 1.155-3.585-6.422-10.443-10.767-18.32-10.767-10.229 0-18.742 7.325-20.592 17.015-.552-.079-1.115-.122-1.688-.122-5.561 0-10.221 3.85-11.466 9.029z" fill="#d0f6ff"/></g><g><path d="m471.939 171.748c0-.069.005-.136.005-.204 0-12.527-10.155-22.682-22.682-22.682-2.976 0-5.815.579-8.419 1.621-5.03-9.011-14.654-15.108-25.706-15.108-14.353 0-26.299 10.279-28.895 23.875-.774-.111-1.564-.171-2.369-.171-7.803 0-14.342 5.402-16.089 12.669z" fill="#fff"/><path d="m449.809 171.748c0-.039.003-.078.003-.118 0-7.203-5.839-13.043-13.042-13.043-1.711 0-3.344.333-4.841.932-2.892-5.181-8.426-8.687-14.781-8.687-8.253 0-15.122 5.911-16.615 13.729-.445-.064-.899-.099-1.362-.099-4.487 0-8.247 3.106-9.252 7.285h59.89z" fill="#d0f6ff"/></g></g></g></svg>