<svg height="512" viewBox="0 0 58 58" width="512" xmlns="http://www.w3.org/2000/svg"><g id="Page-1" fill="none" fill-rule="evenodd"><g id="050---Coffee-Shop" fill-rule="nonzero"><path id="Shape" d="m53 22.009v32.991h-48v-32.991c1.2759582-.0029382 2.47471286-.6115938 3.23-1.64.19519503-.2428186.49375851-.3789776.80508184-.3671552.31132334.0118224.59870065.1702323.77491816.4271552.7576336.9982291 1.9393046 1.5836917 3.192487 1.5817274 1.2531825-.0019642 2.4330124-.5911281 3.187513-1.5917274.1910934-.2551413.4912309-.4053337.81-.4053337s.6189066.1501924.81.4053337c.7560682.9994124 1.9368183 1.5867242 3.19 1.5867242s2.4339318-.5873118 3.19-1.5867242c.1913364-.2547659.4913853-.404667.81-.404667s.6186636.1499011.81.404667c.7560682.9994124 1.9368183 1.5867242 3.19 1.5867242s2.4339318-.5873118 3.19-1.5867242c.1913364-.2547659.4913853-.404667.81-.404667s.6186636.1499011.81.404667c.7560682.9994124 1.9368183 1.5867242 3.19 1.5867242s2.4339318-.5873118 3.19-1.5867242c.1913364-.2547659.4913853-.404667.81-.404667s.6186636.1499011.81.404667c.7545006 1.0005993 1.9343305 1.5897632 3.187513 1.5917274 1.2531824.0019643 2.4348534-.5834983 3.192487-1.5817274.1762175-.2569229.4635948-.4153328.7749182-.4271552.3113233-.0118224.6098868.1243366.8050818.3671552.7552871 1.0284062 1.9540418 1.6370618 3.23 1.64z" fill="#cf976a"/><path id="Shape" d="m36 30h10c.5522847 0 1 .4477153 1 1v22h-12v-22c0-.5522847.4477153-1 1-1z" fill="#805333"/><path id="Shape" d="m47 55h-12c-.5522847 0-1-.4477153-1-1v-23c0-1.1045695.8954305-2 2-2h10c1.1045695 0 2 .8954305 2 2v23c0 .5522847-.4477153 1-1 1zm-11-2h10v-22h-10z" fill="#a56a43"/><path id="Shape" d="m43 45c-.5522847 0-1-.4477153-1-1v-5c0-.5522847.4477153-1 1-1s1 .4477153 1 1v5c0 .5522847-.4477153 1-1 1z" fill="#f3d55b"/><path id="Shape" d="m39 10c-.5522847 0-1-.44771525-1-1s.4477153-1 1-1c3.317 0 4.011-1.2 4.713-3.745.0808292-.29587968.0178665-.61254519-.17-.855-.1888544-.25180584-.4852427-.4-.8-.4h-3.743c-.5522847 0-1-.44771525-1-1s.4477153-1 1-1h3.738c.935249-.0014956 1.8176915.43326518 2.386406 1.17573179s.7586307 1.70768864.513594 2.61026821c-.724 2.639-1.838 5.214-6.638 5.214z" fill="#f0c419"/><path id="Shape" d="m15 53h41c1.1032019.0032948 1.9967052.8967981 2 2v2c0 .5522847-.4477153 1-1 1h-56c-.55228475 0-1-.4477153-1-1v-2c.0032948-1.1032019.89679813-1.9967052 2-2z" fill="#bdc3c7"/><path id="Shape" d="m57 17v2.83c.0332846 2.1023381-1.5233146 3.8917804-3.61 4.15-.13.01-.26.02-.39.02-1.2759582-.0029382-2.4747129-.6115938-3.23-1.64-.195195-.2428186-.4937585-.3789776-.8050818-.3671552-.3113234.0118224-.5987007.1702323-.7749182.4271552-.7576336.9982291-1.9393046 1.5836917-3.192487 1.5817274-1.2531825-.0019642-2.4330124-.5911281-3.187513-1.5917274-.1913364-.2547659-.4913853-.404667-.81-.404667s-.6186636.1499011-.81.404667c-.7560682.9994124-1.9368183 1.5867242-3.19 1.5867242s-2.4339318-.5873118-3.19-1.5867242c-.1913364-.2547659-.4913853-.404667-.81-.404667s-.6186636.1499011-.81.404667c-.7560682.9994124-1.9368183 1.5867242-3.19 1.5867242s-2.4339318-.5873118-3.19-1.5867242c-.1910934-.2551413-.4912309-.4053337-.81-.4053337s-.6189066.1501924-.81.4053337c-.7560682.9994124-1.9368183 1.5867242-3.19 1.5867242s-2.4339318-.5873118-3.19-1.5867242c-.1910934-.2551413-.4912309-.4053337-.81-.4053337s-.6189066.1501924-.81.4053337c-.7545006 1.0005993-1.9343305 1.5897632-3.187513 1.5917274-1.2531824.0019643-2.4348534-.5834983-3.192487-1.5817274-.17621751-.2569229-.46359482-.4153328-.77491816-.4271552-.31132333-.0118224-.60988681.1243366-.80508184.3671552-.75528714 1.0284062-1.9540418 1.6370618-3.23 1.64-.13 0-.26-.01-.39-.02-2.08668538-.2582196-3.64328459-2.0476619-3.61-4.15v-2.83c.0032948-1.1032019.89679813-1.9967052 2-2h52c1.1032019.0032948 1.9967052.8967981 2 2z" fill="#ff5364"/><path id="Shape" d="m53 24v2c-1.4750408-.0065299-2.8971285-.5504785-4-1.53-2.2765589 2.0398895-5.7234411 2.0398895-8 0-2.2765589 2.0398895-5.7234411 2.0398895-8 0-2.2765589 2.0398895-5.7234411 2.0398895-8 0-2.2765589 2.0398895-5.7234411 2.0398895-8 0-2.2765589 2.0398895-5.7234411 2.0398895-8 0-1.10287153.9795215-2.52495918 1.5234701-4 1.53v-2c1.2759582-.0029382 2.47471286-.6115938 3.23-1.64.19519503-.2428186.49375851-.3789776.80508184-.3671552.31132334.0118224.59870065.1702323.77491816.4271552.7576336.9982291 1.9393046 1.5836917 3.192487 1.5817274 1.2531825-.0019642 2.4330124-.5911281 3.187513-1.5917274.1910934-.2551413.4912309-.4053337.81-.4053337s.6189066.1501924.81.4053337c.7560682.9994124 1.9368183 1.5867242 3.19 1.5867242s2.4339318-.5873118 3.19-1.5867242c.1913364-.2547659.4913853-.404667.81-.404667s.6186636.1499011.81.404667c.7560682.9994124 1.9368183 1.5867242 3.19 1.5867242s2.4339318-.5873118 3.19-1.5867242c.1913364-.2547659.4913853-.404667.81-.404667s.6186636.1499011.81.404667c.7560682.9994124 1.9368183 1.5867242 3.19 1.5867242s2.4339318-.5873118 3.19-1.5867242c.1913364-.2547659.4913853-.404667.81-.404667s.6186636.1499011.81.404667c.7545006 1.0005993 1.9343305 1.5897632 3.187513 1.5917274 1.2531824.0019643 2.4348534-.5834983 3.192487-1.5817274.1762175-.2569229.4635948-.4153328.7749182-.4271552.3113233-.0118224.6098868.1243366.8050818.3671552.7552871 1.0284062 1.9540418 1.6370618 3.23 1.64z" fill="#a56a43"/><path id="Shape" d="m29 31v13h-18v-13c0-.5522847.4477153-1 1-1h16c.5522847 0 1 .4477153 1 1z" fill="#67b9cc"/><path id="Shape" d="m28 46h-16c-1.1045695 0-2-.8954305-2-2v-13c0-1.1045695.8954305-2 2-2h16c1.1045695 0 2 .8954305 2 2v13c0 1.1045695-.8954305 2-2 2zm-16-15v13h16v-13z" fill="#a56a43"/><path id="Shape" d="m39 1v8c0 3.3137085-2.6862915 6-6 6h-8c-3.3137085 0-6-2.6862915-6-6v-8c0-.55228475.4477153-1 1-1h18c.5522847 0 1 .44771525 1 1z" fill="#f3d55b"/><path id="Shape" d="m24 5c0 .55228475-.4477153 1-1 1h-4v-2h4c.5522847 0 1 .44771525 1 1z" fill="#b19046"/><path id="Shape" d="m39 4v2h-12c-.5522847 0-1-.44771525-1-1s.4477153-1 1-1z" fill="#b19046"/><path id="Shape" d="m15 36c-.4043959-.0000863-.7689341-.2437275-.923678-.6173454-.1547439-.373618-.0692299-.8036603.216678-1.0896546l1-1c.3923789-.3789722 1.0160848-.3735524 1.4018186.0121814s.3911536 1.0094397.0121814 1.4018186l-1 1c-.1874927.1875494-.4418052.2929434-.707.293z" fill="#fff"/><path id="Shape" d="m15 41c-.4043959-.0000863-.7689341-.2437275-.923678-.6173454-.1547439-.373618-.0692299-.8036603.216678-1.0896546l6-6c.3923789-.3789722 1.0160848-.3735524 1.4018186.0121814s.3911536 1.0094397.0121814 1.4018186l-6 6c-.1874927.1875494-.4418052.2929434-.707.293z" fill="#fff"/><path id="Shape" d="m30 44v3.75c.0336719.6503284-.4612132 1.2071298-1.111 1.25h-17.778c-.6497868-.0428702-1.14467192-.5996716-1.111-1.25v-3.75z" fill="#ff5364"/></g></g></svg>