<svg height="512" viewBox="0 0 256 256" width="512" xmlns="http://www.w3.org/2000/svg"><path d="m160.722 195.165h65.444v14.25h-65.444z" fill="#f46275"/><path d="m160.722 34.831h65.444v160.333h-65.444z" fill="#63bce7"/><path d="m29.834 34.831h65.444v160.333h-65.444z" fill="#63bce7"/><path d="m29.834 34.831h8v160.333h-8z" fill="#6377e7"/><path d="m218.166 34.831h8v160.333h-8z" fill="#63e2e7"/><path d="m95.278 34.831h65.444v160.333h-65.444z" fill="#63bce7"/><path d="m29.834 195.165h65.444v14.25h-65.444z" fill="#f46275"/><path d="m29.834 195.165h8v14.25h-8z" fill="#f43075"/><path d="m218.166 195.165h8v14.25h-8z" fill="#f48875"/><path d="m95.278 195.165h65.444v14.25h-65.444z" fill="#f46275"/><path d="m39.556 48.415h46v10.25h-46z" fill="#f8af23"/><path d="m39.556 66.665h46v10.25h-46z" fill="#f8af23"/><path d="m39.556 153.081h46v10.25h-46z" fill="#f8af23"/><path d="m39.556 171.331h46v10.25h-46z" fill="#f8af23"/><path d="m105 48.415h46v10.25h-46z" fill="#f8af23"/><path d="m105 66.665h46v10.25h-46z" fill="#f8af23"/><path d="m105 153.081h46v10.25h-46z" fill="#f8af23"/><path d="m105 171.331h46v10.25h-46z" fill="#f8af23"/><path d="m170.444 48.415h46v10.25h-46z" fill="#f8af23"/><path d="m170.444 66.665h46v10.25h-46z" fill="#f8af23"/><path d="m170.444 153.081h46v10.25h-46z" fill="#f8af23"/><path d="m170.444 171.331h46v10.25h-46z" fill="#f8af23"/><circle cx="45.056" cy="111.227" fill="#9e9e9e" r="5.5"/><circle cx="110.5" cy="111.227" fill="#9e9e9e" r="5.5"/><circle cx="175.944" cy="111.227" fill="#9e9e9e" r="5.5"/><g fill="#3f3679"><path d="m85.556 46.915h-46a1.5 1.5 0 0 0 -1.5 1.5v10.25a1.5 1.5 0 0 0 1.5 1.5h46a1.5 1.5 0 0 0 1.5-1.5v-10.25a1.5 1.5 0 0 0 -1.5-1.5zm-1.5 10.25h-43v-7.25h43z"/><path d="m85.556 65.165h-46a1.5 1.5 0 0 0 -1.5 1.5v10.25a1.5 1.5 0 0 0 1.5 1.5h46a1.5 1.5 0 0 0 1.5-1.5v-10.25a1.5 1.5 0 0 0 -1.5-1.5zm-1.5 10.25h-43v-7.25h43z"/><path d="m85.556 151.581h-46a1.5 1.5 0 0 0 -1.5 1.5v10.25a1.5 1.5 0 0 0 1.5 1.5h46a1.5 1.5 0 0 0 1.5-1.5v-10.25a1.5 1.5 0 0 0 -1.5-1.5zm-1.5 10.25h-43v-7.25h43z"/><path d="m85.556 169.831h-46a1.5 1.5 0 0 0 -1.5 1.5v10.25a1.5 1.5 0 0 0 1.5 1.5h46a1.5 1.5 0 0 0 1.5-1.5v-10.25a1.5 1.5 0 0 0 -1.5-1.5zm-1.5 10.25h-43v-7.25h43z"/><path d="m105 60.165h46a1.5 1.5 0 0 0 1.5-1.5v-10.25a1.5 1.5 0 0 0 -1.5-1.5h-46a1.5 1.5 0 0 0 -1.5 1.5v10.25a1.5 1.5 0 0 0 1.5 1.5zm1.5-10.25h43v7.25h-43z"/><path d="m105 78.415h46a1.5 1.5 0 0 0 1.5-1.5v-10.25a1.5 1.5 0 0 0 -1.5-1.5h-46a1.5 1.5 0 0 0 -1.5 1.5v10.25a1.5 1.5 0 0 0 1.5 1.5zm1.5-10.25h43v7.25h-43z"/><path d="m105 164.831h46a1.5 1.5 0 0 0 1.5-1.5v-10.25a1.5 1.5 0 0 0 -1.5-1.5h-46a1.5 1.5 0 0 0 -1.5 1.5v10.25a1.5 1.5 0 0 0 1.5 1.5zm1.5-10.25h43v7.25h-43z"/><path d="m105 183.081h46a1.5 1.5 0 0 0 1.5-1.5v-10.25a1.5 1.5 0 0 0 -1.5-1.5h-46a1.5 1.5 0 0 0 -1.5 1.5v10.25a1.5 1.5 0 0 0 1.5 1.5zm1.5-10.25h43v7.25h-43z"/><path d="m170.444 60.165h46a1.5 1.5 0 0 0 1.5-1.5v-10.25a1.5 1.5 0 0 0 -1.5-1.5h-46a1.5 1.5 0 0 0 -1.5 1.5v10.25a1.5 1.5 0 0 0 1.5 1.5zm1.5-10.25h43v7.25h-43z"/><path d="m170.444 78.415h46a1.5 1.5 0 0 0 1.5-1.5v-10.25a1.5 1.5 0 0 0 -1.5-1.5h-46a1.5 1.5 0 0 0 -1.5 1.5v10.25a1.5 1.5 0 0 0 1.5 1.5zm1.5-10.25h43v7.25h-43z"/><path d="m170.444 164.831h46a1.5 1.5 0 0 0 1.5-1.5v-10.25a1.5 1.5 0 0 0 -1.5-1.5h-46a1.5 1.5 0 0 0 -1.5 1.5v10.25a1.5 1.5 0 0 0 1.5 1.5zm1.5-10.25h43v7.25h-43z"/><path d="m170.444 183.081h46a1.5 1.5 0 0 0 1.5-1.5v-10.25a1.5 1.5 0 0 0 -1.5-1.5h-46a1.5 1.5 0 0 0 -1.5 1.5v10.25a1.5 1.5 0 0 0 1.5 1.5zm1.5-10.25h43v7.25h-43z"/><path d="m45.056 125.769a1.5 1.5 0 0 0 1.5-1.5v-6.208a7 7 0 1 0 -3 0v6.208a1.5 1.5 0 0 0 1.5 1.5zm-4-14.542a4 4 0 1 1 4 4 4 4 0 0 1 -4-4z"/><path d="m109 118.061v6.208a1.5 1.5 0 0 0 3 0v-6.208a7 7 0 1 0 -3 0zm1.5-10.834a4 4 0 1 1 -4 4 4 4 0 0 1 4-4z"/><path d="m174.444 118.061v6.208a1.5 1.5 0 0 0 3 0v-6.208a7 7 0 1 0 -3 0zm1.5-10.834a4 4 0 1 1 -4 4 4 4 0 0 1 4-4z"/><path d="m85.556 200.79h-46a1.5 1.5 0 0 0 0 3h46a1.5 1.5 0 1 0 0-3z"/><path d="m151 200.79h-46a1.5 1.5 0 0 0 0 3h46a1.5 1.5 0 0 0 0-3z"/><path d="m216.444 200.79h-46a1.5 1.5 0 0 0 0 3h46a1.5 1.5 0 0 0 0-3z"/><path d="m25.89 219.669h-18.5a1.5 1.5 0 1 0 0 3h18.5a1.5 1.5 0 1 0 0-3z"/><path d="m248.61 219.669h-18.5a1.5 1.5 0 0 0 0 3h18.5a1.5 1.5 0 0 0 0-3z"/><path d="m215.337 219.669h-174.674a1.5 1.5 0 0 0 0 3h174.674a1.5 1.5 0 0 0 0-3z"/><path d="m250.11 209.415a1.5 1.5 0 0 0 -1.5-1.5h-20.944v-173.084a1.5 1.5 0 0 0 -1.5-1.5h-196.332a1.5 1.5 0 0 0 -1.5 1.5v173.084h-20.944a1.5 1.5 0 1 0 0 3h241.22a1.5 1.5 0 0 0 1.5-1.5zm-25.444-15.75h-62.444v-157.334h62.444zm-65.444 0h-62.444v-157.334h62.444zm-127.888-157.334h62.444v157.334h-62.444zm0 160.333h62.444v11.25h-62.444zm65.444 0h62.444v11.25h-62.444zm65.444 11.25v-11.25h62.444v11.25z"/></g></svg>