<?xml version="1.0" encoding="iso-8859-1"?>
<!-- Generator: Adobe Illustrator 19.0.0, SVG Export Plug-In . SVG Version: 6.00 Build 0)  -->
<svg version="1.1" id="Capa_1" xmlns="http://www.w3.org/2000/svg" xmlns:xlink="http://www.w3.org/1999/xlink" x="0px" y="0px"
	 viewBox="0 0 512 512" style="enable-background:new 0 0 512 512;" xml:space="preserve">
<path style="fill:#4BC999;" d="M512,256c0,13.49-1.045,26.728-3.051,39.654c-1.881,12.006-4.587,23.74-8.056,35.14
	c-19.446,63.781-63.122,116.976-120.31,148.898C343.719,500.276,301.234,512,256,512s-87.719-11.724-124.583-32.308
	c-12.403-6.917-24.179-14.848-35.203-23.667c-6.969-5.569-13.636-11.504-19.978-17.763c-24.858-24.524-44.732-54.094-57.929-87.05
	c-2.685-6.666-5.089-13.479-7.199-20.417c-0.502-1.63-0.982-3.271-1.442-4.911C3.365,303.668,0,280.221,0,256
	c0-29.842,5.11-58.504,14.493-85.138c5.778-16.394,13.187-32.026,22.016-46.696c3.469-5.768,7.158-11.379,11.055-16.833
	C93.999,42.36,170.047,0,256,0s162.001,42.36,208.436,107.332c28.505,39.894,45.84,88.325,47.438,140.716
	C511.958,250.681,512,253.335,512,256z"/>
<path style="fill:#F9EED7;" d="M464.436,107.332H47.564c14.587-20.407,32.089-38.588,51.911-53.917C142.754,19.926,197.047,0,256,0
	s113.246,19.926,156.526,53.415C432.347,68.744,449.849,86.925,464.436,107.332z"/>
<path style="fill:#D6C8B0;" d="M47.564,107.332h416.872c-14.587-20.407-32.089-38.588-51.911-53.917h-5.214
	c-3.197,0-5.789,2.591-5.789,5.778v3.312c0,3.197-2.591,5.789-5.778,5.789h-9.101c-3.187,0-5.778,2.581-5.778,5.778v4.963
	c0,3.197-2.591,5.789-5.789,5.789h-17.356c-3.197,0-5.789-2.591-5.789-5.789V44.325c0-3.197-2.591-5.789-5.778-5.789h-14.879
	c-3.197,0-5.789-2.591-5.789-5.789v-8.265c0-3.197-2.591-5.778-5.789-5.778h-4.953c-3.197,0-5.789,2.581-5.789,5.778v9.091
	c0,3.239-2.654,5.851-5.893,5.789c-3.156-0.063-5.674,2.633-5.674,5.789v9.916c0,3.197-2.591,5.789-5.789,5.789h-12.403
	c-3.187,0-5.778,2.591-5.778,5.778v12.403c0,3.197-2.591,5.789-5.789,5.789h-23.97c-3.197,0-5.789-2.591-5.789-5.789V32.747
	c0-3.197-2.581-5.778-5.778-5.778h-6.614c-3.197,0-5.789,2.581-5.789,5.778v48.086c0,3.574-2.894,6.468-6.468,6.468h-12.664
	c-3.574,0-6.468-2.894-6.468-6.468V40.187c0-3.197-2.591-5.789-5.789-5.789h-17.356c-3.187,0-5.778,2.591-5.778,5.789v41.326
	c0,3.197-2.591,5.789-5.789,5.789H146.15c-3.187,0-5.778-2.591-5.778-5.789V59.193c0-3.187-2.591-5.778-5.789-5.778H99.474
	C79.653,68.744,62.151,86.925,47.564,107.332z"/>
<path style="fill:#5BD3A2;" d="M457.96,168.417L457.96,168.417c0-6.448-5.227-11.675-11.675-11.675h-3.891
	c-6.448,0-11.675-5.227-11.675-11.675l0,0c0-6.448-5.227-11.675-11.675-11.675H240.03c-6.448,0-11.675,5.227-11.675,11.675l0,0
	c0,6.448,5.227,11.675,11.675,11.675h71.995c6.448,0,11.675,5.227,11.675,11.675l0,0c0,6.448-5.227,11.675-11.675,11.675h-32.79
	c-6.448,0-11.675,5.227-11.675,11.675l0,0c0,6.448,5.227,11.675,11.675,11.675h9.906c6.448,0,11.675,5.227,11.675,11.675l0,0
	c0,6.448-5.227,11.675-11.675,11.675h-35.49c-6.448,0-11.675,5.227-11.675,11.675l0,0c0,6.448,5.227,11.675,11.675,11.675h168.138
	c6.448,0,11.675-5.227,11.675-11.675l0,0c0-6.448,5.227-11.675,11.675-11.675h1.147c6.448,0,11.675-5.227,11.675-11.675l0,0
	c0-6.448-5.227-11.675-11.675-11.675h-21.404c-6.448,0-11.675-5.227-11.675-11.675l0,0c0-6.448,5.227-11.675,11.675-11.675h21.404
	C452.732,180.091,457.96,174.865,457.96,168.417z"/>
<path style="fill:#5C5E70;" d="M500.893,330.794c-1.411,4.618-2.947,9.185-4.608,13.688c-5.413,14.702-12.131,28.766-20.041,42.057
	c-1.223,2.079-2.487,4.127-3.772,6.165c-1.337,2.111-2.696,4.2-4.096,6.269c-2.873,4.274-5.883,8.453-9.017,12.539
	c-1.62,2.111-3.271,4.2-4.963,6.269c-20.396,25.004-45.443,46.08-73.812,61.91H131.417c-28.369-15.83-53.415-36.906-73.812-61.91
	c-1.693-2.069-3.344-4.159-4.963-6.269c-1.818-2.372-3.594-4.765-5.319-7.199c-1.254-1.766-2.487-3.542-3.699-5.339
	c-1.4-2.069-2.759-4.159-4.096-6.269c-10.24-16.175-18.714-33.583-25.151-51.942c-1.16-3.291-2.247-6.614-3.271-9.968H500.893z"/>
<g>
	<path style="fill:#797B89;" d="M373.433,418.354L373.433,418.354c0-5.849-4.742-10.591-10.591-10.591h-89.251
		c-5.849,0-10.591,4.742-10.591,10.591l0,0c0,5.849,4.742,10.591,10.591,10.591h28.869c5.849,0,10.591,4.742,10.591,10.591l0,0
		c0,5.849-4.742,10.591-10.591,10.591h-2.943c-5.849,0-10.591,4.742-10.591,10.591l0,0c0,5.849,4.742,10.591,10.591,10.591h85.541
		c5.849,0,10.591-4.742,10.591-10.591l0,0c0-5.849,4.742-10.591,10.591-10.591h2.943c5.849,0,10.591-4.742,10.591-10.591l0,0
		c0-5.849-4.742-10.591-10.591-10.591h-25.159C378.175,428.945,373.433,424.203,373.433,418.354z"/>
	<path style="fill:#797B89;" d="M130.518,393.718c0,5.851-4.744,10.595-10.595,10.595h-72.6c-1.254-1.766-2.487-3.542-3.699-5.339
		c-1.4-2.069-2.759-4.159-4.096-6.269c-10.24-16.175-18.714-33.583-25.151-51.942h89.067c2.926,0,5.58,1.181,7.492,3.103
		c1.912,1.923,3.103,4.566,3.103,7.492c0,5.851-4.744,10.585-10.595,10.585H69.319c-5.851,0-10.595,4.744-10.595,10.595
		c0,5.851,4.744,10.595,10.595,10.595h50.604c2.926,0,5.569,1.181,7.492,3.093C129.337,388.148,130.518,390.792,130.518,393.718z"/>
</g>
<path style="fill:#C69A6A;" d="M426.22,320.02h-35.527V164.33c0-9.811,7.953-17.763,17.763-17.763l0,0
	c9.811,0,17.763,7.953,17.763,17.763V320.02z"/>
<path style="fill:#41B787;" d="M444.935,0h-72.957c-25.648,0-46.44,20.792-46.44,46.44v115.197c0,25.648,20.792,46.44,46.44,46.44
	h72.957c25.648,0,46.44-20.792,46.44-46.441V46.44C491.376,20.792,470.583,0,444.935,0z"/>
<path style="fill:#4BC999;" d="M440.482,171.122h-45.543c-16.566,0-29.996-13.43-29.996-29.996V41.771
	c0-16.566,13.43-29.996,29.996-29.996h45.543c16.566,0,29.996,13.43,29.996,29.996v99.355
	C470.478,157.692,457.048,171.122,440.482,171.122z"/>
<g>
	<rect x="390.698" y="208.081" style="fill:#B58657;" width="18.808" height="111.94"/>
	<rect x="396.288" y="208.081" style="fill:#B58657;" width="29.93" height="15.809"/>
</g>
<path style="fill:#5BD3A2;" d="M440.366,92.755h-12.919c-3.935,0-7.124-3.19-7.124-7.124V49.724c0-3.935,3.19-7.124,7.124-7.124
	h12.918c3.935,0,7.124,3.19,7.124,7.124v35.906C447.49,89.564,444.3,92.755,440.366,92.755z"/>
<path style="fill:#797B89;" d="M496.285,344.482c-5.413,14.702-12.131,28.766-20.041,42.057h-45.181
	c-2.926,0-5.569-1.191-7.481-3.103c-1.923-1.912-3.103-4.566-3.103-7.492c0-5.851-4.744-10.585-10.595-10.585h-16.771
	c-2.926,0-5.569-1.181-7.481-3.103c-1.923-1.923-3.103-4.566-3.103-7.492c0-5.851,4.744-10.595,10.585-10.595h100.624
	C494.613,344.168,495.47,344.273,496.285,344.482z"/>
<g>
	<path style="fill:#FCF8F2;" d="M122.546,398.973v12.539H52.642c-3.135-4.086-6.144-8.265-9.017-12.539H122.546z"/>
	<path style="fill:#FCF8F2;" d="M468.375,398.973c-2.873,4.274-5.883,8.453-9.017,12.539h-56.822v-12.539H468.375z"/>
	<rect x="195.929" y="398.973" style="fill:#FCF8F2;" width="133.214" height="12.538"/>
</g>
<path style="fill:#C69A6A;" d="M160.05,208.078h-23.1v-101.23c0-6.379,5.171-11.549,11.549-11.549l0,0
	c6.379,0,11.549,5.171,11.549,11.549v101.23H160.05z"/>
<path style="fill:#41B787;" d="M172.219,0h-47.437c-16.677,0-30.195,13.519-30.195,30.195v74.901
	c0,16.677,13.519,30.195,30.195,30.195h47.436c16.677,0,30.195-13.519,30.195-30.195V30.195C202.414,13.519,188.896,0,172.219,0z"/>
<path style="fill:#4BC999;" d="M169.324,111.264h-29.612c-10.772,0-19.503-8.732-19.503-19.503V27.16
	c0-10.772,8.732-19.503,19.503-19.503h29.612c10.772,0,19.503,8.732,19.503,19.503v64.601
	C188.827,102.532,180.094,111.264,169.324,111.264z"/>
<g>
	<rect x="136.955" y="135.293" style="fill:#B58657;" width="12.229" height="72.788"/>
	<rect x="140.591" y="135.293" style="fill:#B58657;" width="19.46" height="10.281"/>
</g>
<g>
	<path style="fill:#5BD3A2;" d="M169.247,60.309h-8.4c-2.558,0-4.632-2.074-4.632-4.632V32.33c0-2.558,2.074-4.632,4.632-4.632h8.4
		c2.558,0,4.632,2.074,4.632,4.632v23.346C173.879,58.235,171.806,60.309,169.247,60.309z"/>
	<path style="fill:#5BD3A2;" d="M134.894,225.723L134.894,225.723c0-6.448-5.227-11.675-11.675-11.675H24.836
		c-6.448,0-11.675,5.227-11.675,11.675l0,0c0,6.448,5.227,11.675,11.675,11.675H56.66c6.448,0,11.675,5.227,11.675,11.675l0,0
		c0,6.448-5.227,11.675-11.675,11.675h-3.244c-6.448,0-11.675,5.227-11.675,11.675l0,0c0,6.448,5.227,11.675,11.675,11.675h94.293
		c6.448,0,11.675-5.227,11.675-11.675l0,0c0-6.448,5.227-11.675,11.675-11.675h3.244c6.448,0,11.675-5.227,11.675-11.675l0,0
		c0-6.448-5.227-11.675-11.675-11.675h-27.733C140.121,237.398,134.894,232.17,134.894,225.723z"/>
</g>
<g>
	<path style="fill:#494B5B;" d="M179.472,359.602c-2.267-30.229-19.561-56.33-44.419-70.855c-3.897-2.278-7.983-4.274-12.225-5.956
		c-10.209-4.033-21.337-6.259-32.967-6.259c-34.983,0-65.358,20.093-80.196,49.351c0.46,1.641,0.94,3.281,1.442,4.911
		c2.111,6.938,4.514,13.751,7.199,20.417c7.001-33.061,36.425-57.961,71.555-57.961c8.662,0,16.969,1.515,24.68,4.284
		c4.305,1.546,8.422,3.49,12.309,5.789c19.769,11.63,33.625,32.298,35.84,56.278c0.209,2.236,0.313,4.504,0.313,6.792
		c0,2.288-0.104,4.556-0.313,6.792c-3.438,37.157-34.795,66.351-72.829,66.351c-4.65,0-9.206-0.439-13.625-1.275
		c6.343,6.259,13.009,12.194,19.978,17.763c44.356-3.103,79.935-38.546,83.257-82.84c0.167-2.247,0.251-4.504,0.251-6.792
		C179.722,364.105,179.639,361.848,179.472,359.602z"/>
	<path style="fill:#494B5B;" d="M328.725,276.532c-6.478,0-12.81,0.69-18.902,2.006c-4.483,0.951-8.829,2.247-13.03,3.856
		c-33.834,12.904-57.929,45.693-57.929,83.999c0,49.549,40.312,89.861,89.861,89.861s89.861-40.312,89.861-89.861
		C418.586,316.844,378.274,276.532,328.725,276.532z M328.725,439.536c-40.333,0-73.143-32.81-73.143-73.143
		c0-30.73,19.059-57.104,45.976-67.908c4.159-1.672,8.516-2.978,13.019-3.856c4.577-0.909,9.31-1.379,14.148-1.379
		c40.333,0,73.143,32.82,73.143,73.143C401.868,406.727,369.058,439.536,328.725,439.536z"/>
</g>
<path style="fill:#FFD15C;" d="M356.488,225.395c-2.8-10.836-12.936-18.16-24.106-17.398l-27.126,1.839l-20.877,1.411
	c-2.058,0.136-3.939,1.202-5.11,2.894c-1.181,1.693-1.526,3.835-0.94,5.81l6.708,22.685c-0.272-0.031-0.543-0.063-0.826-0.063
	H153.579l-3.856-7.314l-5.789-10.992l-12.016,6.322l2.372,4.504l7.429,14.117l-18.892,33.583l-8.286,14.743l-32.099,57.072
	l-4.765,8.464c-1.191,2.1-1.17,4.671,0.052,6.76c1.223,2.079,3.448,3.354,5.862,3.354h126.746v-0.031
	c0.157,0.01,0.324,0.021,0.481,0.031h0.251c2.341,0,4.514-1.202,5.757-3.187l71.868-114.991l8.098,27.387l4.765,16.091l17.209,58.18
	l3.448,11.661c0.867,2.957,3.574,4.869,6.51,4.869c0.637,0,1.285-0.094,1.933-0.282c3.594-1.066,5.642-4.848,4.577-8.443
	l-3.448-11.661l-17.209-58.18l-4.754-16.091l-16.06-54.314l15.579-1.055l23.96-1.62c4.639-0.334,8.871,2.727,10.031,7.241
	c0.721,2.79,0.167,5.736-1.515,8.077c-1.682,2.341-4.295,3.793-7.168,4.002l-9.54,0.679c-3.741,0.272-6.562,3.521-6.29,7.262
	c0.261,3.741,3.532,6.552,7.252,6.29l9.54-0.679c6.907-0.502,13.187-4.002,17.23-9.624
	C356.885,239.167,358.212,232.103,356.488,225.395z M95.201,359.602l2.612-4.639l29.038-51.639l8.202-14.576l14.19-25.224
	l50.573,96.078L95.201,359.602L95.201,359.602z M211.571,352.778l-50.845-96.622h111.229L211.571,352.778z"/>
<g>
	<circle style="fill:#EDBB4C;" cx="89.858" cy="366.393" r="13.932"/>
	<circle style="fill:#EDBB4C;" cx="328.725" cy="366.393" r="13.932"/>
</g>
<g>
	<path style="fill:#494B5B;" d="M164.046,235.263h-26.613c-16.151,0-29.29-13.14-29.29-29.29c0-3.751,3.041-6.792,6.792-6.792
		s6.792,3.041,6.792,6.792c0,8.66,7.046,15.706,15.706,15.706h26.613c3.751,0,6.792,3.041,6.792,6.792
		S167.797,235.263,164.046,235.263z"/>
	<path style="fill:#494B5B;" d="M352.836,244.799c-4.044,5.622-10.324,9.122-17.23,9.624l-9.54,0.679
		c-3.72,0.261-6.99-2.55-7.252-6.29c-0.272-3.741,2.55-6.99,6.29-7.262l9.54-0.679c2.873-0.209,5.486-1.661,7.168-4.002
		s2.236-5.287,1.515-8.077c-1.16-4.514-5.392-7.576-10.031-7.241l-23.96,1.62l-4.086-13.333l27.126-1.839
		c11.17-0.763,21.305,6.562,24.106,17.398C358.207,232.103,356.88,239.167,352.836,244.799z"/>
</g>
<path style="fill:#FFDC8D;" d="M267.775,252.339h-51.228c-2.308,0-4.18-1.871-4.18-4.18l0,0c0-2.308,1.871-4.18,4.18-4.18h51.228
	c2.308,0,4.18,1.871,4.18,4.18l0,0C271.955,250.467,270.083,252.339,267.775,252.339z"/>
<g>
	<path style="fill:#5BD3A2;" d="M512,256c0,13.49-1.045,26.728-3.051,39.654c-1.39-0.585-2.915-0.909-4.524-0.909h-55.787
		c-3.218,0-6.144-1.306-8.255-3.417c-2.111-2.111-3.417-5.036-3.417-8.255c0-6.447,5.224-11.672,11.672-11.672h37.627
		c3.229,0,6.144-1.306,8.255-3.417c2.111-2.111,3.417-5.036,3.417-8.255c0-6.457,5.224-11.682,11.672-11.682h2.267
		C511.958,250.681,512,253.335,512,256z"/>
	<path style="fill:#5BD3A2;" d="M101.146,159.19c0,6.447-5.235,11.672-11.682,11.672H14.493
		c5.778-16.394,13.187-32.026,22.016-46.696h29.612c6.447,0,11.672,5.224,11.672,11.672c0,3.229,1.306,6.144,3.417,8.255
		c2.111,2.121,5.036,3.427,8.255,3.427c3.218,0,6.144,1.306,8.255,3.417C99.84,153.046,101.146,155.972,101.146,159.19z"/>
</g>
<g>
	<path style="fill:#41B787;" d="M430.502,130.884h-42.088c-6.732,0-12.191-5.457-12.191-12.191l0,0
		c0-6.732,5.457-12.191,12.191-12.191h12.134c6.712,0,12.47-5.251,12.593-11.962c0.125-6.837-5.38-12.419-12.189-12.419h-36.571
		v24.381h-24.73c-6.732,0-12.191,5.458-12.191,12.191l0,0c0,6.732,5.457,12.191,12.191,12.191h24.73v24.381h66.526
		c6.809,0,12.313-5.582,12.189-12.419C442.973,136.135,437.215,130.884,430.502,130.884z"/>
	<path style="fill:#41B787;" d="M148.408,80.686h-21.086c-3.373,0-6.107-2.734-6.107-6.107l0,0c0-3.373,2.734-6.107,6.107-6.107
		h6.079c3.362,0,6.247-2.631,6.309-5.992c0.063-3.425-2.695-6.221-6.106-6.221h-18.322v12.215h-12.388
		c-3.373,0-6.107,2.734-6.107,6.107l0,0c0,3.373,2.734,6.107,6.107,6.107h12.389v12.215h33.328c3.411,0,6.169-2.796,6.106-6.221
		C154.655,83.317,151.771,80.686,148.408,80.686z"/>
</g>
<g>
</g>
<g>
</g>
<g>
</g>
<g>
</g>
<g>
</g>
<g>
</g>
<g>
</g>
<g>
</g>
<g>
</g>
<g>
</g>
<g>
</g>
<g>
</g>
<g>
</g>
<g>
</g>
<g>
</g>
</svg>
