<svg id="filled_outline" height="512" viewBox="0 0 512 512" width="512" xmlns="http://www.w3.org/2000/svg" data-name="filled outline"><path d="m24 80h464v32h-464z" fill="#eda600"/><path d="m64 80 16-48h40v16l-16 8-8 24z" fill="#4d6378"/><path d="m248 80-16-48h-40v16l16 8 8 24z" fill="#4d6378"/><path d="m128 80 16-24h24l16 24z" fill="#4d6378"/><path d="m40 112h432v344h-432z" fill="#de9400"/><path d="m72 112h368v96h-368z" fill="#f6bb00"/><path d="m72 208h368v208h-368z" fill="#4d6378"/><path d="m104 240h304v32h-304z" fill="#34475c"/><path d="m120 272h272v104h-272z" fill="#84d8e8"/><path d="m72 456h32v32h-32z" fill="#cf8300"/><path d="m408 456h32v32h-32z" fill="#cf8300"/><path d="m264 80 16-48h40v16l-16 8-8 24z" fill="#4d6378"/><path d="m448 80-16-48h-40v16l16 8 8 24z" fill="#4d6378"/><path d="m328 80 16-24h24l16 24z" fill="#4d6378"/><g fill="#eda600"><circle cx="224" cy="160" r="24"/><circle cx="304" cy="160" r="24"/><circle cx="384" cy="160" r="24"/></g><path d="m488 72h-34.23389l-14.17675-42.53027a7.99967 7.99967 0 0 0 -7.58936-5.46973h-40a8.00008 8.00008 0 0 0 -8 8v16a7.99979 7.99979 0 0 0 4.42236 7.15527l13.03614 6.51856 3.44213 10.32617h-16.61938l-13.625-20.4375a7.99943 7.99943 0 0 0 -6.65625-3.5625h-24a7.99943 7.99943 0 0 0 -6.65625 3.5625l-13.625 20.4375h-16.61938l3.44213-10.32617 13.03614-6.51856a7.99979 7.99979 0 0 0 4.42236-7.15527v-16a8.00008 8.00008 0 0 0 -8-8h-40a7.99967 7.99967 0 0 0 -7.58936 5.46973l-14.17675 42.53027h-4.46778l-14.17675-42.53027a7.99967 7.99967 0 0 0 -7.58936-5.46973h-40a8.00008 8.00008 0 0 0 -8 8v16a7.99979 7.99979 0 0 0 4.42236 7.15527l13.03614 6.51856 3.44207 10.32617h-16.61932l-13.625-20.4375a7.99943 7.99943 0 0 0 -6.65625-3.5625h-24a7.99943 7.99943 0 0 0 -6.65625 3.5625l-13.625 20.4375h-16.61932l3.44207-10.32617 13.03614-6.51856a7.99979 7.99979 0 0 0 4.42236-7.15527v-16a8.00008 8.00008 0 0 0 -8-8h-40a7.99967 7.99967 0 0 0 -7.58936 5.46973l-14.17675 42.53027h-34.23389a8.00008 8.00008 0 0 0 -8 8v32a8.00008 8.00008 0 0 0 8 8h8v336a8.00008 8.00008 0 0 0 8 8h24v24a8.00008 8.00008 0 0 0 8 8h32a8.00008 8.00008 0 0 0 8-8v-24h288v24a8.00008 8.00008 0 0 0 8 8h32a8.00008 8.00008 0 0 0 8-8v-24h24a8.00008 8.00008 0 0 0 8-8v-336h8a8.00008 8.00008 0 0 0 8-8v-32a8.00008 8.00008 0 0 0 -8-8zm-72.41064-18.53027a7.99648 7.99648 0 0 0 -4.01172-4.625l-11.57764-5.78907v-3.05566h26.23389l10.66674 32h-15.13452zm-67.30811 10.53027h15.4375l5.333 8h-26.10351zm-62.51514-24h26.23389v3.05566l-11.57764 5.78907a7.99648 7.99648 0 0 0 -4.01172 4.625l-6.17675 18.53027h-15.13452zm-70.17675 13.46973a7.99648 7.99648 0 0 0 -4.01172-4.625l-11.57764-5.78907v-3.05566h26.23389l10.66668 32h-15.13446zm-67.30811 10.53027h15.4375l5.333 8h-26.10351zm-62.51514-24h26.23389v3.05566l-11.57764 5.78907a7.99648 7.99648 0 0 0 -4.01172 4.625l-6.17675 18.53027h-15.13446zm10.23389 440h-16v-16h16zm336 0h-16v-16h16zm32-32h-416v-328h16v296a8.00008 8.00008 0 0 0 8 8h368a8.00008 8.00008 0 0 0 8-8v-296h16zm-384-232h352v192h-352zm352-16h-352v-80h352zm48-96h-448v-16h448z"/><path d="m224 192a32 32 0 1 0 -32-32 32.03635 32.03635 0 0 0 32 32zm16-32a15.99656 15.99656 0 0 1 -8 13.835v-27.67a15.99656 15.99656 0 0 1 8 13.835zm-24-13.835v27.67a15.96288 15.96288 0 0 1 0-27.66992z"/><path d="m304 192a32 32 0 1 0 -32-32 32.03635 32.03635 0 0 0 32 32zm16-32a15.99656 15.99656 0 0 1 -8 13.835v-27.67a15.99656 15.99656 0 0 1 8 13.835zm-24-13.835v27.67a15.96288 15.96288 0 0 1 0-27.66992z"/><path d="m384 192a32 32 0 1 0 -32-32 32.03635 32.03635 0 0 0 32 32zm16-32a15.99656 15.99656 0 0 1 -8 13.835v-27.67a15.99656 15.99656 0 0 1 8 13.835zm-24-13.835v27.67a15.96288 15.96288 0 0 1 0-27.66992z"/><circle cx="112" cy="176" r="8"/><circle cx="136" cy="176" r="8"/><circle cx="160" cy="176" r="8"/><path d="m104 144h64v16h-64z"/><path d="m408 232h-304a8.00008 8.00008 0 0 0 -8 8v32a8.00008 8.00008 0 0 0 8 8h8v96a8.00008 8.00008 0 0 0 8 8h272a8.00008 8.00008 0 0 0 8-8v-96h8a8.00008 8.00008 0 0 0 8-8v-32a8.00008 8.00008 0 0 0 -8-8zm-24 136h-256v-88h256zm16-104h-288v-16h288z"/></svg>