<svg id="Capa_1" enable-background="new 0 0 501 501" height="512" viewBox="0 0 501 501" width="512" xmlns="http://www.w3.org/2000/svg"><g><path d="m30.838 364.628c-16.239-32.774-25.359-69.702-25.338-108.762.074-137.475 112.084-247.32 249.536-244.825 133.217 2.419 240.464 111.164 240.464 244.959 0 38.794-9.016 75.482-25.068 108.082-9.446 19.186-29.162 31.165-50.547 31.165h-339.793c-20.907 0-39.972-11.886-49.254-30.619z" fill="#55a4f9"/><path d="m470.5 325.691v38.252c-11.601 23.599-26.886 45.059-45.107 63.629-9.11 9.285-24.893 2.86-24.893-10.147v-92.425c0-19.102 15.302-34.63 34.317-34.993 19.622-.376 35.683 16.059 35.683 35.684zm-404.317-35.684c-19.622-.375-35.683 16.06-35.683 35.685v38.252c11.548 23.492 26.749 44.865 44.86 63.378 9.187 9.39 25.14 2.888 25.14-10.248v-92.074c0-19.102-15.303-34.63-34.317-34.993z" fill="#51489a"/><path d="m64.056 386c-13.779 0-26.383-7.769-32.573-20.079-.331-.657-.658-1.317-.983-1.977v-38.252c0-19.625 16.061-36.06 35.683-35.685 19.015.363 34.317 15.891 34.317 34.993v24.556c0 20.128-16.316 36.444-36.444 36.444zm405.461-20.079c.331-.657.658-1.317.983-1.978v-38.252c0-19.625-16.061-36.06-35.683-35.685-19.015.364-34.317 15.892-34.317 34.994v24.556c0 20.127 16.316 36.444 36.444 36.444 13.779 0 26.382-7.769 32.573-20.079z" fill="#5f55af"/><path d="m425.831 427.126c-15.302 15.675-32.687 29.306-51.71 40.445-7.123-11.025-19.52-18.322-33.622-18.322h-180c-14.102 0-26.499 7.298-33.622 18.322-14.734-8.627-28.485-18.75-41.047-30.159-3.656-3.322 34.67-287.412 34.67-287.412h279.061l4.91 32.808c12.114 80.942 19.245 162.535 21.36 244.318z" fill="#f44545"/><path d="m103.935 452.343c-10.237-7.654-19.855-16.089-28.766-25.218 2.115-81.783 9.246-163.376 21.36-244.318l4.91-32.808h32.446l-5.71 38.155c-13.103 87.552-21.194 175.759-24.24 264.189z" fill="#c50048"/><path d="m370.875 40h-10.375l-1.347.58c-13.94 5.996-29.771 5.785-43.546-.58-12.071-23.716-36.723-40-65.107-40s-53.036 16.284-65.106 40l-2.272 1.052c-12.766 5.914-27.484 5.928-40.261.036l-2.361-1.088h-10.375c-16.569 0-30 13.431-30 30 0 16.569 13.431 30 30 30h47.375v17.5c0 4.142 3.358 7.5 7.5 7.5h131c4.142 0 7.5-3.358 7.5-7.5v-17.5h47.375c16.569 0 30-13.431 30-30 0-16.569-13.431-30-30-30zm-120.375-25c19.731 0 37.192 9.903 47.674 25h-95.348c10.482-15.097 27.943-25 47.674-25z" fill="#0a3575"/><path d="m270.5 180h-184.667c-24.853 0-45-20.147-45-45v-30c0-24.853 20.147-45 45-45h184.667c24.853 0 45 20.147 45 45v30c0 24.853-20.147 45-45 45z" fill="#6a61b4"/><path d="m415.167 180h-157.334c-24.853 0-45-20.147-45-45v-30c0-24.853 20.147-45 45-45h157.333c24.853 0 45 20.147 45 45v30c.001 24.853-20.146 45-44.999 45z" fill="#8078bf"/><path d="m85.834 172.5c-20.678 0-37.5-16.822-37.5-37.5v-30c0-20.678 16.822-37.5 37.5-37.5s37.5 16.822 37.5 37.5v30c0 20.678-16.823 37.5-37.5 37.5z" fill="#51489a"/><path d="m103.334 105v30c0 9.65-7.85 17.5-17.5 17.5s-17.5-7.85-17.5-17.5v-30c0-9.65 7.85-17.5 17.5-17.5s17.5 7.85 17.5 17.5z" fill="#453d83"/><path d="m163 163.75c12.426 0 22.5 10.074 22.5 22.5v80.711c0 12.2-9.487 22.591-21.679 23.025-12.8.455-23.321-9.787-23.321-22.485v-81.25c0-12.427 10.074-22.501 22.5-22.501zm152.5 22.5v80.711c0 12.2 9.487 22.591 21.679 23.025 12.8.455 23.321-9.786 23.321-22.485v-81.25c0-12.426-10.074-22.5-22.5-22.5-12.426-.001-22.5 10.073-22.5 22.499z" fill="#ffc14f"/><path d="m140.5 40h45v157.5c0 12.426-10.074 22.5-22.5 22.5s-22.5-10.074-22.5-22.5zm175 0v157.5c0 12.426 10.074 22.5 22.5 22.5s22.5-10.074 22.5-22.5v-157.5z" fill="#fff36c"/><path d="m271.949 488.822c5.221 3.04 3.434 11.005-2.59 11.463-6.224.474-12.513.715-18.859.715-47.757 0-92.322-13.664-130-37.296v-93.704c0-22.091 17.909-40 40-40h149.577c-25.448 0-46.077 20.629-46.077 46.077v99.247c0 5.506 2.946 10.578 7.702 13.354.082.048.165.096.247.144z" fill="#ffa90b"/><path d="m197.167 330h143.333c22.091 0 40 17.909 40 40v93.704c-32.812 20.58-70.848 33.6-111.667 36.62-26.354-1.95-51.547-8.068-74.924-17.698-22.331-9.199-36.742-31.161-36.742-55.312v-57.314c0-22.091 17.908-40 40-40z" fill="#ffc14f"/><path d="m380.5 402.583h-260v-16h260z" fill="#f29500"/><path d="m270.5 270h-40c-8.284 0-15-6.716-15-15v-20c0-8.284 6.716-15 15-15h40c8.284 0 15 6.716 15 15v20c0 8.284-6.716 15-15 15z" fill="#f29500"/><path d="m270.5 270h-21c-8.284 0-15-6.716-15-15v-20c0-8.284 6.716-15 15-15h21c8.284 0 15 6.716 15 15v20c0 8.284-6.716 15-15 15z" fill="#ffa90b"/><path d="m330 419.583v-25c0-4.418 3.582-8 8-8 4.418 0 8 3.582 8 8v25c0 4.418-3.582 8-8 8-4.418 0-8-3.581-8-8zm-151.208-242.755h-7.5v-.171c0-4.142-3.357-7.5-7.5-7.5s-7.5 3.358-7.5 7.5v.171h-7.5c-9.649 0-17.5 7.851-17.5 17.5v40c0 9.649 7.851 17.5 17.5 17.5h30c9.649 0 17.5-7.851 17.5-17.5v-40c0-9.649-7.851-17.5-17.5-17.5zm2.5 57.5c0 1.378-1.121 2.5-2.5 2.5h-30c-1.379 0-2.5-1.122-2.5-2.5v-40c0-1.378 1.121-2.5 2.5-2.5h7.5v8.172c0 4.142 3.357 7.5 7.5 7.5s7.5-3.358 7.5-7.5v-8.172h7.5c1.379 0 2.5 1.122 2.5 2.5zm170.916-57.5h-7.5v-.171c0-4.142-3.357-7.5-7.5-7.5s-7.5 3.358-7.5 7.5v.171h-7.5c-9.649 0-17.5 7.851-17.5 17.5v40c0 9.649 7.851 17.5 17.5 17.5h30c9.649 0 17.5-7.851 17.5-17.5v-40c0-9.649-7.85-17.5-17.5-17.5zm2.5 57.5c0 1.378-1.121 2.5-2.5 2.5h-30c-1.379 0-2.5-1.122-2.5-2.5v-40c0-1.378 1.121-2.5 2.5-2.5h7.5v8.172c0 4.142 3.357 7.5 7.5 7.5s7.5-3.358 7.5-7.5v-8.172h7.5c1.379 0 2.5 1.122 2.5 2.5z" fill="#fff5f5"/></g></svg>