<svg height="512" viewBox="0 0 512 512" width="512" xmlns="http://www.w3.org/2000/svg"><g id="Snow_Mountain" data-name="Snow Mountain"><g id="Filled"><path d="m512 293.333-56-93.333-32 32-48-40-104-160-116.35 174.52-43.65-70.52-112 180.923v179.077h512z" fill="#c5e1a5"/><path d="m424 232-48-40-25.849-39.768c-18.026 178.29-167.583 317.732-350.151 319.743v24.025h512v-202.667l-56-93.333z" fill="#aed581"/><path d="m512 400.035-174.41-.07c-64.9 8.09-137.72 27.77-196.73 71.47v40.6h371.14z" fill="#fff"/><path d="m216 504s-64-49.2-208-49.2h-8v57.2h224z" fill="#ededed"/><path d="m100 392h20l-40-72-40 72h20l-20 32h80z" fill="#6cc4bc"/><path d="m323.378 120.257a21.142 21.142 0 0 1 -17.654-9.011l-5.226-7.854a15.837 15.837 0 0 0 -13.224-6.75 15.835 15.835 0 0 0 -13.223 6.75l-11.975 17.993c-6.034 9.067-16.9 14.615-28.632 14.615-26.134 0-42.138-25.843-28.425-45.9l51.018-74.619c6.725-9.836 22.521-10.007 29.506-.319l55.1 76.418c8.899 12.349-.93 28.677-17.265 28.677z" fill="#fff"/><path d="m102.668 206a31.435 31.435 0 0 1 26.156-14 20.422 20.422 0 0 0 17.364-31.171l-20.588-33.252a16 16 0 0 0 -27.208 0l-33.514 54.14a22.46 22.46 0 0 0 19.101 34.283 22.461 22.461 0 0 0 18.689-10z" fill="#fff"/><path d="m308 344h20l-40-72-40 72h20l-20 32h80z" fill="#49ab9f"/><path d="m300.509 35.92a84.012 84.012 0 0 1 -80.517 60.08 84.192 84.192 0 0 1 -17.321-1.806c-9.171 19.306 6.387 41.806 30.773 41.806 11.729 0 22.6-5.548 28.632-14.615l11.975-17.993a16.329 16.329 0 0 1 26.447 0l5.226 7.854a21.142 21.142 0 0 0 17.654 9.011c16.335 0 26.164-16.328 17.262-28.676z" fill="#ededed"/><path d="m146.188 160.829-15.141-24.459a84.033 84.033 0 0 1 -69.456 55.06 22.477 22.477 0 0 0 41.077 14.57 31.435 31.435 0 0 1 26.156-14 20.422 20.422 0 0 0 17.364-31.171z" fill="#ededed"/><g fill="#dcedc8"><circle cx="216" cy="192" r="16"/><circle cx="252" cy="220" r="12"/><circle cx="72" cy="264" r="16"/><circle cx="108" cy="292" r="12"/></g><path d="m100 392h20l-11.072-19.93a91.93 91.93 0 0 1 -58.186 34.743l-10.742 17.187h80z" fill="#4db6ac"/><circle cx="76" cy="348" fill="#cce5e4" r="12"/><circle cx="88" cy="376" fill="#cce5e4" r="8"/><path d="m252 352h20l-40-72-40 72h20l-20 32h80z" fill="#6cc4bc"/><path d="m252 352h20l-11.072-19.93a91.93 91.93 0 0 1 -58.186 34.743l-10.742 17.187h80z" fill="#4db6ac"/><circle cx="228" cy="316" fill="#cce5e4" r="12"/><circle cx="240" cy="344" fill="#cce5e4" r="8"/><path d="m438.891 400c-16.522 44.63-65.436 86.028-113.433 112h186.542v-112z" fill="#ededed"/><path d="m472 352h32l-64-80-64 80h32l-32 48h32l-32 48h128l-32-48h32z" fill="#6cc4bc"/><path d="m464 488-8-40h-32l-8 40z" fill="#d6995c"/><circle cx="424" cy="320" fill="#cce5e4" r="12"/><circle cx="448" cy="336" fill="#cce5e4" r="8"/><path d="m472 400h32l-32-48h32l-18.8-23.5a119.9 119.9 0 0 1 -98.5 55.454l-10.7 16.046h32l-32 48h128z" fill="#4db6ac"/></g><g id="Outline"><path d="m336.6 392.026q-52.19 6.505-96.6 20.878v-20.904h32a7.994 7.994 0 0 0 6.78-12.24l-12.35-19.76h5.57a7.994 7.994 0 0 0 6.99-11.89l-40-72a8 8 0 0 0 -13.98 0l-40 72a8 8 0 0 0 6.99 11.89h5.56l-12.34 19.76a7.994 7.994 0 0 0 6.78 12.24h32v24a7.983 7.983 0 0 0 .339 2.3q-47.583 17.443-84.946 44.321a440.227 440.227 0 0 0 -51.393-10.386v-20.235h32a7.994 7.994 0 0 0 6.78-12.24l-12.35-19.76h5.57a7.989 7.989 0 0 0 6.99-11.88l-40-72.01a8 8 0 0 0 -13.98 0l-40 72.01a7.989 7.989 0 0 0 6.99 11.88h5.57l-12.35 19.76a7.994 7.994 0 0 0 6.78 12.24h32v18.211a581.5 581.5 0 0 0 -64-3.411 8 8 0 0 0 0 16c56.232 0 99.7 7.743 130.528 16.275.205.062.41.124.619.169 8.775 2.445 16.52 4.95 23.227 7.353 32.778 11.745 48.61 23.639 48.75 23.745a8 8 0 0 0 9.752-12.684c-1.459-1.122-21.14-15.866-61.774-29.192 47.566-31.276 107.843-51.633 179.477-60.563a8 8 0 0 0 -1.978-15.877zm-282.17 23.974 12.35-19.76a7.994 7.994 0 0 0 -6.78-12.24h-6.41l26.41-47.53 26.4 47.53h-6.4a7.994 7.994 0 0 0 -6.78 12.24l12.34 19.76zm152-40 12.35-19.76a7.994 7.994 0 0 0 -6.78-12.24h-6.4l26.4-47.53 26.4 47.53h-6.4a7.994 7.994 0 0 0 -6.78 12.24l12.34 19.76z"/><path d="m312.75 60.9a8 8 0 1 0 -6.49-3.32 8.015 8.015 0 0 0 6.49 3.32z"/><path d="m412.149 232.537-33.806 33.806a8 8 0 0 0 11.314 11.314l40-40 24.755-24.757 42.728 71.214a8 8 0 0 0 13.72-8.232l-48-80a8 8 0 0 0 -12.517-1.541l-26.834 26.834-41.459-34.547-41.41-63.716a27.862 27.862 0 0 0 3.08-2.522 26.043 26.043 0 0 0 8.28-18.74 25.342 25.342 0 0 0 -4.87-14.75l-9.18-12.72a8.035 8.035 0 0 0 -6.49-3.33 8 8 0 0 0 -6.49 12.68l9.179 12.73a9.089 9.089 0 0 1 1.851 5.39 9.958 9.958 0 0 1 -3.271 7.11 13.424 13.424 0 0 1 -9.349 3.5h-.05c-4.49 0-8.79-2.14-10.95-5.45l-5.22-7.85a24.318 24.318 0 0 0 -39.77 0l-11.97 17.99c-4.5 6.82-12.89 11.05-21.92 11.05h-.06a26.542 26.542 0 0 1 -17.822-6.355 7.962 7.962 0 0 0 -1.977-1.934 20.771 20.771 0 0 1 -5.641-13.881 19.54 19.54 0 0 1 3.62-11.21l51.02-74.62a9.827 9.827 0 0 1 8.259-4 9.927 9.927 0 0 1 8.151 3.84l8.49 11.78a8.03 8.03 0 0 0 6.5 3.32 7.915 7.915 0 0 0 4.67-1.51 8.009 8.009 0 0 0 1.81-11.17l-8.49-11.78a24.8 24.8 0 0 0 -9.56-7.92 27.227 27.227 0 0 0 -11.52-2.56h-.091a25.862 25.862 0 0 0 -21.429 10.97l-51.02 74.62a35.175 35.175 0 0 0 -3.23 34.86 37.9 37.9 0 0 0 3.835 6.613l-26.541 39.807a8 8 0 1 0 13.312 8.876l25.195-37.788a43.619 43.619 0 0 0 22.419 6.042h.04a44.511 44.511 0 0 0 20.1-4.78 40.476 40.476 0 0 0 15.2-13.4l11.97-18a7.873 7.873 0 0 1 6.519-3.18h.09a7.877 7.877 0 0 1 6.521 3.18l5.22 7.86a29.137 29.137 0 0 0 24.32 12.58h.04c.531 0 1.06-.016 1.586-.043l40.754 62.709-19.417 19.417a8.01 8.01 0 0 0 -1.771 2.686l-16 40a8 8 0 1 0 14.856 5.942l15.39-38.475 17.673-17.673z"/><path d="m59.49 175.22v.01l-1.41 2.28a30.253 30.253 0 0 0 -.511 31.225l-56.369 91.054a8 8 0 1 0 13.6 8.422l54.464-87.971a30.485 30.485 0 0 0 14.656 3.76h.06a30.39 30.39 0 0 0 25.34-13.56 23.389 23.389 0 0 1 19.5-10.44h.08a28.4 28.4 0 0 0 11.725-2.55l52.643 85.03a8 8 0 0 0 13.6-8.421l-54.035-87.278a28.227 28.227 0 0 0 .153-30.161l-20.58-33.25a23.907 23.907 0 0 0 -20.286-11.37h-.16a23.931 23.931 0 0 0 -17.69 7.8 8 8 0 0 0 11.85 10.76 8.012 8.012 0 0 1 12.68 1.23l20.59 33.25a12.229 12.229 0 0 1 1.89 6.49 12.626 12.626 0 0 1 -3.53 8.7 12.114 12.114 0 0 1 -8.93 3.77 39.348 39.348 0 0 0 -32.81 17.56.607.607 0 0 1 -.07.1 14.429 14.429 0 0 1 -11.96 6.34 14.093 14.093 0 0 1 -10.4-4.39 14.736 14.736 0 0 1 -4.1-10.12 14.186 14.186 0 0 1 2.2-7.56l1.41-2.28a7.987 7.987 0 0 0 -2.59-11.01 8 8 0 0 0 -11.01 2.58z"/><path d="m78.92 159.03a8.011 8.011 0 1 0 -3.57-4.97 7.944 7.944 0 0 0 3.57 4.97z"/><path d="m511.05 403.77a7.97 7.97 0 0 0 -.39-8.21l-23.71-35.56h17.05a8.006 8.006 0 0 0 6.25-13l-64-80a8.01 8.01 0 0 0 -12.5 0l-64 80a8 8 0 0 0 6.25 13h17.05l-23.71 35.56a8.009 8.009 0 0 0 6.66 12.44h17.05l-23.71 35.56a8 8 0 0 0 6.66 12.44h38.238l-4.794 24h-17.444a8 8 0 0 0 0 16h96a8 8 0 0 0 0-16h-17.446l-4.8-24h38.246a8 8 0 0 0 6.66-12.44l-23.71-35.56h17.05a7.969 7.969 0 0 0 7.05-4.23zm-85.296 76.23 4.8-24h18.883l4.807 24zm46.246-88h-32a8 8 0 0 0 0 16h27.714l21.336 32h-98.1l23.71-35.56a8.009 8.009 0 0 0 -6.66-12.44h-17.05l23.71-35.56a8.009 8.009 0 0 0 -6.66-12.44h-15.351l47.351-59.19 47.35 59.19h-47.35a8 8 0 0 0 0 16h27.714l21.336 32z"/><path d="m334.9 348.06a8.05 8.05 0 0 0 .091-7.95l-40-72a7.994 7.994 0 0 0 -13.98.01l-13.34 23.99a8.031 8.031 0 0 0 -.7 6.09 7.936 7.936 0 0 0 3.81 4.79 8 8 0 0 0 10.88-3.1l6.339-11.42 26.4 47.53h-6.4a7.994 7.994 0 0 0 -6.78 12.24l12.349 19.76h-17.569a8 8 0 0 0 0 16h32a7.994 7.994 0 0 0 6.78-12.24l-12.35-19.76h5.57a8.053 8.053 0 0 0 6.9-3.94z"/><circle cx="440" cy="8" r="8"/><circle cx="376" cy="56" r="8"/><circle cx="392" cy="104" r="8"/><circle cx="424" cy="136" r="8"/><circle cx="408" cy="168" r="8"/><circle cx="488" cy="184" r="8"/><circle cx="472" cy="152" r="8"/><circle cx="456" cy="96" r="8"/><circle cx="504" cy="56" r="8"/><circle cx="424" cy="48" r="8"/><circle cx="144" cy="8" r="8"/><circle cx="168" cy="40" r="8"/><circle cx="152" cy="88" r="8"/><circle cx="88" cy="88" r="8"/><circle cx="40" cy="120" r="8"/><circle cx="8" cy="168" r="8"/><circle cx="24" cy="72" r="8"/><circle cx="56" cy="40" r="8"/><circle cx="104" cy="40" r="8"/></g></g></svg>