<svg id="Capa_1" enable-background="new 0 0 512 512" height="512" viewBox="0 0 512 512" width="512" xmlns="http://www.w3.org/2000/svg"><g><g><g><g><g><g><g><g><g><g><g><g><g><g><g><circle cx="256" cy="256" fill="#6c67d2" r="256"/></g></g></g></g></g></g></g></g></g></g></g></g></g></g><path d="m336.167 142.961-19.285-19.285-1.104 1.104-22.447-22.447-3.884 3.884-23.527-23.527-113.803 284.264-33.676 43.654 98.416 98.416c12.762 1.958 25.834 2.976 39.143 2.976 124.686 0 228.533-89.146 251.329-207.174l-166.513-166.513z" fill="#534dca"/><path d="m251.653 76.2c-10.486-.591-20.098 6.553-22.265 17.147-.46 2.251-.542 4.489-.305 6.656-9.589.461-18.023 7.32-20.036 17.157-1.016 4.967-.219 9.879 1.919 14.069-.92-1.596-2.044-3.107-3.409-4.472-8.402-8.402-22.025-8.402-30.427 0-3.381 3.381-5.378 7.611-6.037 12.003-5.809 3.853-9.644 10.444-9.644 17.937 0 2.297.368 4.507 1.035 6.582-9.302 2.373-16.191 10.783-16.191 20.824 0 11.882 9.633 21.515 21.515 21.515 5.913 0 11.267-2.388 15.156-6.249 3.889 3.861 9.243 6.249 15.156 6.249 6.293 0 11.936-2.718 15.87-7.024 1.348.472 2.764.817 4.235 1.017 5.859.797 11.486-.847 15.86-4.149 3.333 4.35 8.316 7.438 14.175 8.236 1.142.155 2.275.215 3.392.19l10.967-59.818z" fill="#fd5"/><g fill="#edbe00"><path d="m382.656 372.339c.463-1.556.702-3.207.665-4.917-.191-8.846-7.516-15.862-16.362-15.671s-15.862 7.516-15.671 16.362c.037 1.71.346 3.349.876 4.884-6.887 1.916-11.88 8.287-11.719 15.762.191 8.846 7.516 15.862 16.362 15.671 4.402-.095 8.349-1.959 11.182-4.896 2.957 2.812 6.981 4.504 11.383 4.409 8.846-.191 15.862-7.516 15.671-16.362-.162-7.475-5.425-13.625-12.387-15.242z"/><path d="m416.822 384.328c1.173-.635 2.27-1.455 3.242-2.47 5.027-5.249 4.847-13.579-.401-18.606-5.249-5.027-13.579-4.848-18.606.401-.972 1.015-1.744 2.146-2.328 3.345-5.113-2.887-11.713-2.087-15.962 2.348-5.027 5.249-4.847 13.579.401 18.606 2.612 2.502 5.987 3.712 9.339 3.652.084 3.351 1.439 6.671 4.051 9.172 5.249 5.027 13.579 4.847 18.606-.401 4.248-4.434 4.763-11.063 1.658-16.047z"/><path d="m344.661 162.464c.94-1.967 1.603-4.106 1.913-6.383 1.602-11.774-6.644-22.617-18.418-24.219-2.052-.279-4.072-.242-6.024.044-3.31-9.389-12.487-15.038-21.995-14.273-.042-2.18-.41-4.389-1.154-6.563-3.813-11.133-15.848-17.102-26.999-13.476-.02-9.99-7.034-18.933-17.206-21.013-1.047-.214-2.089-.321-3.125-.38v127.689c3.235-.071 6.333-.87 9.11-2.258.92.253 1.857.47 2.829.602 5.859.797 11.486-.847 15.861-4.149 3.333 4.35 8.316 7.438 14.175 8.236 7.604 1.035 14.804-2.054 19.393-7.532 2.345-.744 4.542-1.859 6.482-3.324 3.333 4.35 8.316 7.438 14.175 8.236 11.774 1.602 22.617-6.644 24.219-18.418 1.353-9.952-4.339-19.214-13.236-22.819z"/><path d="m237.657 157.317c1.045-.96 1.965-2.091 2.704-3.391 3.825-6.723 1.476-15.273-5.247-19.098s-15.273-1.476-19.098 5.247c-.739 1.3-1.242 2.668-1.533 4.057-6.027-1.652-12.631.889-15.863 6.57-3.825 6.723-1.476 15.273 5.247 19.098 3.345 1.903 7.143 2.276 10.586 1.343.957 3.436 3.218 6.511 6.563 8.414 6.723 3.825 15.273 1.476 19.098-5.247 3.232-5.68 2.042-12.656-2.457-16.993z"/></g><path d="m303.007 193.874c.976 1.03 2.123 1.931 3.434 2.65 6.783 3.717 15.295 1.23 19.012-5.553s1.231-15.295-5.553-19.012c-1.311-.719-2.688-1.199-4.081-1.468 1.555-6.052-1.091-12.615-6.823-15.756-6.783-3.717-15.295-1.23-19.012 5.553-1.849 3.376-2.161 7.179-1.173 10.607-3.421 1.012-6.458 3.322-8.308 6.697-3.717 6.783-1.23 15.295 5.553 19.011 5.732 3.141 12.687 1.839 16.951-2.729z" fill="#ff9e22"/><path d="m231.011 404.433h-41.415l-10.001-111.428 10.001-99.646 20.707-11.782 20.708 11.782 10.001 99.646z" fill="#fff"/><path d="m313.842 404.433h-41.416l-10-111.428 10-99.646 20.708-11.782 20.708 11.782 10 99.646z" fill="#e6e6ff"/><g><path d="m189.596 404.433h-41.415v-211.074l20.707-11.782 20.708 11.782z" fill="#ff5b5b"/><path d="m251.653 404.433h-20.642v-211.074l20.708-11.782 10.9 111.428z" fill="#ff5b5b"/><path d="m355.257 404.433h-41.415v-211.074l20.707-11.782 20.708 11.782z" fill="#c8001c"/></g><path d="m156.705 383.491c.502-1.562.779-3.224.779-4.953 0-8.941-7.248-16.19-16.19-16.19-8.941 0-16.19 7.248-16.19 16.19 0 1.729.277 3.391.779 4.953-7 1.786-12.183 8.114-12.183 15.67 0 8.941 7.248 16.19 16.19 16.19 4.45 0 8.478-1.797 11.405-4.703 2.926 2.906 6.955 4.703 11.405 4.703 8.941 0 16.19-7.248 16.19-16.19-.002-7.557-5.185-13.885-12.185-15.67z" fill="#fd5"/><path d="m214.024 433.723c1.635.139 3.317.036 5.002-.352 8.714-2.005 14.152-10.695 12.146-19.409s-10.695-14.152-19.409-12.146c-1.685.388-3.243 1.03-4.652 1.87-3.31-6.421-10.64-10.053-18.003-8.358-8.714 2.005-14.152 10.695-12.146 19.409.998 4.336 3.653 7.859 7.141 10.059-2.175 3.504-3.023 7.833-2.025 12.169 2.005 8.714 10.695 14.152 19.409 12.146 7.363-1.695 12.367-8.166 12.537-15.388z" fill="#fd5"/><path d="m272.426 404.433h-20.773l.066-222.856 20.707 11.782z" fill="#c8001c"/></g></svg>