<svg height="431pt" viewBox="0 -6 431.44534 431" width="431pt" xmlns="http://www.w3.org/2000/svg"><path d="m307.199219 217.632812c0 84.832032-68.769531 153.601563-153.597657 153.601563-84.832031 0-153.601562-68.769531-153.601562-153.601563 0-84.828124 68.769531-153.597656 153.601562-153.597656 84.828126 0 153.597657 68.769532 153.597657 153.597656zm0 0" fill="#c1dbdc"/><path d="m62.480469 39.101562c-1.746094 0-3.496094-.667968-4.828125-2-2.664063-2.667968-2.664063-6.988281 0-9.652343l25.226562-25.226563c2.667969-2.667968 6.988282-2.667968 9.652344 0 2.667969 2.664063 2.667969 6.988282 0 9.652344l-25.226562 25.226562c-1.332032 1.332032-3.078126 2-4.824219 2zm0 0" fill="#4c241d"/><path d="m87.707031 39.101562c-1.746093 0-3.496093-.667968-4.828125-2l-25.226562-25.226562c-2.664063-2.664062-2.664063-6.988281 0-9.652344 2.667968-2.667968 6.988281-2.667968 9.652344 0l25.226562 25.226563c2.667969 2.664062 2.667969 6.984375 0 9.652343-1.332031 1.332032-3.078125 2-4.824219 2zm0 0" fill="#4c241d"/><path d="m37.546875 129.121094c-11.417969 0-20.714844-9.292969-20.714844-20.714844 0-11.417969 9.292969-20.710938 20.714844-20.710938s20.714844 9.292969 20.714844 20.714844-9.296875 20.710938-20.714844 20.710938zm0-27.773438c-3.894531 0-7.0625 3.167969-7.0625 7.0625 0 3.894532 3.167969 7.058594 7.0625 7.058594s7.058594-3.164062 7.058594-7.058594c0-3.894531-3.164063-7.0625-7.058594-7.0625zm0 0" fill="#4c241d"/><path d="m249.855469 29.902344c-96.519531 0-174.761719 78.242187-174.761719 174.761718 0 96.519532 78.242188 174.761719 174.761719 174.761719s174.761719-78.242187 174.761719-174.761719c0-96.519531-78.242188-174.761718-174.761719-174.761718zm0 292.53125c-65.039063 0-117.769531-52.730469-117.769531-117.769532 0-65.042968 52.726562-117.765624 117.769531-117.765624s117.769531 52.722656 117.769531 117.765624c0 65.042969-52.726562 117.769532-117.769531 117.769532zm0 0" fill="#edebdc"/><g fill="#4c241d"><path d="m249.851562 386.253906c-100.125 0-181.585937-81.457031-181.585937-181.589844 0-100.128906 81.460937-181.589843 181.585937-181.589843 100.132813 0 181.59375 81.460937 181.59375 181.589843 0 100.132813-81.460937 181.589844-181.59375 181.589844zm0-349.527344c-92.597656 0-167.929687 75.339844-167.929687 167.9375 0 92.597657 75.332031 167.933594 167.929687 167.933594 92.601563 0 167.941407-75.335937 167.941407-167.933594 0-92.597656-75.339844-167.9375-167.941407-167.9375zm0 292.53125c-68.699218 0-124.59375-55.890624-124.59375-124.59375 0-68.703124 55.894532-124.597656 124.59375-124.597656 68.707032 0 124.601563 55.894532 124.601563 124.597656 0 68.703126-55.894531 124.59375-124.601563 124.59375zm0-235.535156c-61.171874 0-110.9375 49.769532-110.9375 110.941406 0 61.175782 49.765626 110.941407 110.9375 110.941407 61.175782 0 110.949219-49.765625 110.949219-110.941407 0-61.171874-49.773437-110.941406-110.949219-110.941406zm0 0"/><path d="m368.640625 214.222656h-232.105469c-3.773437 0-6.828125-3.058594-6.828125-6.828125s3.054688-6.828125 6.828125-6.828125h232.105469c3.773437 0 6.824219 3.058594 6.824219 6.828125s-3.050782 6.828125-6.824219 6.828125zm0 0"/><path d="m335.207031 296.054688c-1.742187 0-3.472656-.65625-4.804687-1.976563l-170.703125-169.125c-2.679688-2.65625-2.699219-6.976563-.046875-9.652344 2.652344-2.691406 6.976562-2.707031 9.652344-.046875l170.707031 169.125c2.671875 2.65625 2.695312 6.976563.039062 9.652344-1.332031 1.351562-3.085937 2.023438-4.84375 2.023438zm0 0"/><path d="m164.503906 296.054688c-1.757812 0-3.515625-.671876-4.851562-2.023438-2.65625-2.675781-2.632813-7 .046875-9.652344l170.699219-169.128906c2.6875-2.652344 7.007812-2.632812 9.652343.046875 2.65625 2.675781 2.632813 7-.039062 9.652344l-170.707031 169.128906c-1.328126 1.316406-3.066407 1.976563-4.800782 1.976563zm0 0"/><path d="m252.585938 330.273438c-3.773438 0-6.824219-3.054688-6.824219-6.824219v-238.933594c0-3.773437 3.050781-6.828125 6.824219-6.828125 3.773437 0 6.828124 3.054688 6.828124 6.828125v238.933594c0 3.769531-3.054687 6.824219-6.828124 6.824219zm0 0"/></g><path d="m269.601562 57.207031c0 10.90625-8.839843 19.746094-19.746093 19.746094s-19.746094-8.839844-19.746094-19.746094 8.839844-19.746093 19.746094-19.746093 19.746093 8.839843 19.746093 19.746093zm0 0" fill="#ffce56"/><path d="m249.851562 83.78125c-14.652343 0-26.570312-11.917969-26.570312-26.570312 0-14.65625 11.917969-26.574219 26.570312-26.574219 14.65625 0 26.574219 11.917969 26.574219 26.574219 0 14.652343-11.917969 26.570312-26.574219 26.570312zm0-39.492188c-7.125 0-12.917968 5.792969-12.917968 12.917969s5.792968 12.917969 12.917968 12.917969 12.921876-5.792969 12.921876-12.917969-5.792969-12.917969-12.921876-12.917969zm0 0" fill="#4c241d"/><path d="m177.4375 381.070312 72.417969-154.5625 72.417969 154.5625zm0 0" fill="#bf7e68"/><path d="m322.273438 387.898438h-144.832032c-2.335937 0-4.507812-1.195313-5.761718-3.164063-1.25-1.972656-1.414063-4.445313-.421876-6.5625l72.417969-154.5625c1.117188-2.394531 3.53125-3.929687 6.179688-3.929687 2.644531 0 5.058593 1.535156 6.179687 3.929687l72.417969 154.5625c.996094 2.113281.835937 4.589844-.417969 6.5625-1.253906 1.96875-3.429687 3.164063-5.761718 3.164063zm-134.097657-13.652344h123.355469l-61.679688-131.648438zm0 0" fill="#4c241d"/><path d="m281.011719 309.792969-31.15625 66.496093-31.15625-66.496093zm0 0" fill="#fc8c29"/><path d="m249.851562 383.117188c-2.644531 0-5.058593-1.53125-6.179687-3.929688l-31.152344-66.496094c-.992187-2.113281-.832031-4.589844.417969-6.5625 1.253906-1.96875 3.429688-3.164062 5.761719-3.164062h62.3125c2.335937 0 4.507812 1.195312 5.761719 3.164062 1.253906 1.972656 1.414062 4.445313.417968 6.5625l-31.160156 66.496094c-1.117188 2.398438-3.53125 3.929688-6.179688 3.929688zm-20.414062-66.496094 20.414062 43.578125 20.421876-43.578125zm0 0" fill="#4c241d"/><path d="m417.058594 204.664062c0 10.90625-8.839844 19.746094-19.746094 19.746094s-19.746094-8.839844-19.746094-19.746094 8.839844-19.746093 19.746094-19.746093 19.746094 8.839843 19.746094 19.746093zm0 0" fill="#ffce56"/><path d="m397.3125 231.238281c-14.652344 0-26.574219-11.917969-26.574219-26.574219 0-14.652343 11.921875-26.570312 26.574219-26.570312s26.574219 11.917969 26.574219 26.570312c0 14.65625-11.921875 26.574219-26.574219 26.574219zm0-39.496093c-7.128906 0-12.921875 5.796874-12.921875 12.921874 0 7.121094 5.796875 12.917969 12.921875 12.917969s12.917969-5.796875 12.917969-12.917969c0-7.125-5.792969-12.921874-12.917969-12.921874zm0 0" fill="#4c241d"/><path d="m122.144531 204.664062c0 10.90625-8.839843 19.746094-19.746093 19.746094-10.902344 0-19.746094-8.839844-19.746094-19.746094s8.84375-19.746093 19.746094-19.746093c10.90625 0 19.746093 8.839843 19.746093 19.746093zm0 0" fill="#ffce56"/><path d="m102.398438 231.238281c-14.652344 0-26.570313-11.917969-26.570313-26.574219 0-14.652343 11.917969-26.570312 26.570313-26.570312 14.65625 0 26.574218 11.917969 26.574218 26.570312 0 14.65625-11.917968 26.574219-26.574218 26.574219zm0-39.496093c-7.121094 0-12.917969 5.796874-12.917969 12.921874 0 7.121094 5.796875 12.917969 12.917969 12.917969 7.125 0 12.921874-5.796875 12.921874-12.917969 0-7.125-5.796874-12.921874-12.921874-12.921874zm0 0" fill="#4c241d"/><path d="m373.003906 309.789062c0 10.902344-8.839844 19.746094-19.746094 19.746094s-19.746093-8.84375-19.746093-19.746094c0-10.90625 8.839843-19.746093 19.746093-19.746093s19.746094 8.839843 19.746094 19.746093zm0 0" fill="#ffce56"/><path d="m353.265625 336.363281c-.078125 0-.152344 0-.226563 0-7.097656-.0625-13.753906-2.882812-18.726562-7.941406-10.273438-10.441406-10.132812-27.300781.3125-37.578125 10.441406-10.277344 27.292969-10.128906 37.582031.308594 10.273438 10.445312 10.132813 27.304687-.3125 37.582031-5.007812 4.925781-11.617187 7.628906-18.628906 7.628906zm-.007813-39.488281c-3.273437 0-6.546874 1.230469-9.058593 3.703125-5.082031 4.996094-5.148438 13.191406-.152344 18.269531 2.417969 2.460938 5.652344 3.832032 9.105469 3.859375 3.207031-.121093 6.707031-1.292969 9.167968-3.707031 5.078126-5 5.144532-13.195312.152344-18.273438-2.527344-2.566406-5.875-3.851562-9.214844-3.851562zm0 0" fill="#4c241d"/><path d="m166.199219 99.539062c0 10.90625-8.839844 19.746094-19.746094 19.746094s-19.746094-8.839844-19.746094-19.746094 8.839844-19.746093 19.746094-19.746093 19.746094 8.839843 19.746094 19.746093zm0 0" fill="#ffce56"/><path d="m146.457031 126.101562c-6.878906 0-13.753906-2.648437-18.949219-7.929687-10.273437-10.445313-10.136718-27.300781.3125-37.578125 10.453126-10.273438 27.304688-10.132812 37.574219.308594 10.277344 10.449218 10.136719 27.308594-.308593 37.582031-5.167969 5.078125-11.902344 7.617187-18.628907 7.617187zm-.003906-39.476562c-3.273437 0-6.546875 1.234375-9.0625 3.703125-5.078125 4.996094-5.144531 13.191406-.148437 18.273437 4.992187 5.082032 13.1875 5.140626 18.269531.152344 2.460937-2.421875 3.828125-5.652344 3.859375-9.105468.027344-3.453126-1.289063-6.710938-3.710938-9.167969-2.523437-2.570313-5.863281-3.855469-9.207031-3.855469zm0 0" fill="#4c241d"/><path d="m166.199219 309.789062c0 10.902344-8.839844 19.746094-19.746094 19.746094s-19.746094-8.84375-19.746094-19.746094c0-10.90625 8.839844-19.746093 19.746094-19.746093s19.746094 8.839843 19.746094 19.746093zm0 0" fill="#ffce56"/><path d="m146.445312 336.363281c-7.011718 0-13.621093-2.703125-18.628906-7.632812-5.0625-4.976563-7.878906-11.625-7.9375-18.722657-.054687-7.101562 2.65625-13.796874 7.632813-18.855468 4.976562-5.058594 11.625-7.878906 18.722656-7.9375 7.34375-.003906 13.796875 2.648437 18.855469 7.628906 5.058594 4.976562 7.878906 11.628906 7.9375 18.726562.054687 7.097657-2.652344 13.792969-7.632813 18.851563-4.976562 5.0625-11.625 7.878906-18.722656 7.941406-.074219 0-.152344 0-.226563 0zm.011719-39.496093c-.035156 0-.074219 0-.109375 0-3.449218.027343-6.683594 1.398437-9.105468 3.859374-2.417969 2.460938-3.738282 5.71875-3.710938 9.167969s1.402344 6.683594 3.863281 9.105469h.003907c2.457031 2.421875 5.785156 3.851562 9.160156 3.707031 3.449218-.027343 6.683594-1.398437 9.105468-3.859375 2.417969-2.460937 3.734376-5.71875 3.710938-9.167968-.03125-3.449219-1.402344-6.679688-3.863281-9.101563-2.433594-2.394531-5.644531-3.710937-9.054688-3.710937zm0 0" fill="#4c241d"/><path d="m373.003906 99.539062c0 10.90625-8.839844 19.746094-19.746094 19.746094s-19.746093-8.839844-19.746093-19.746094 8.839843-19.746093 19.746093-19.746093 19.746094 8.839843 19.746094 19.746093zm0 0" fill="#ffce56"/><path d="m353.253906 126.097656c-6.726562 0-13.460937-2.53125-18.628906-7.613281-10.445312-10.273437-10.585938-27.132813-.3125-37.578125 10.273438-10.453125 27.132812-10.59375 37.582031-.3125 10.445313 10.277344 10.585938 27.136719.3125 37.582031-5.195312 5.277344-12.074219 7.921875-18.953125 7.921875zm.003906-39.472656c-3.34375 0-6.683593 1.285156-9.210937 3.855469-4.992187 5.078125-4.925781 13.273437.152344 18.273437 5.082031 4.996094 13.28125 4.921875 18.273437-.15625 4.996094-5.074218 4.929688-13.273437-.152344-18.269531-2.515624-2.46875-5.789062-3.703125-9.0625-3.703125zm0 0" fill="#4c241d"/><path d="m278.023438 204.664062c0 15.554688-12.609376 28.167969-28.167969 28.167969-15.554688 0-28.167969-12.613281-28.167969-28.167969 0-15.558593 12.613281-28.167968 28.167969-28.167968 15.558593 0 28.167969 12.609375 28.167969 28.167968zm0 0" fill="#9dc1e4"/><path d="m249.851562 239.660156c-19.292968 0-34.992187-15.699218-34.992187-34.996094 0-19.296874 15.699219-34.996093 34.992187-34.996093 19.300782 0 35 15.699219 35 34.996093 0 19.296876-15.699218 34.996094-35 34.996094zm0-56.339844c-11.765624 0-21.339843 9.574219-21.339843 21.34375 0 11.769532 9.574219 21.339844 21.339843 21.339844 11.773438 0 21.347657-9.570312 21.347657-21.339844 0-11.769531-9.574219-21.34375-21.347657-21.34375zm0 0" fill="#4c241d"/><path d="m116.054688 378.0625h266.238281v34.132812h-266.238281zm0 0" fill="#e66353"/><path d="m382.292969 419.019531h-266.238281c-3.769532 0-6.828126-3.054687-6.828126-6.824219v-34.132812c0-3.773438 3.058594-6.828125 6.828126-6.828125h266.238281c3.773437 0 6.828125 3.054687 6.828125 6.828125v34.132812c0 3.769532-3.054688 6.824219-6.828125 6.824219zm-259.414063-13.652343h252.585938v-20.480469h-252.585938zm0 0" fill="#4c241d"/></svg>