<svg height="512" viewBox="0 0 128 128" width="512" xmlns="http://www.w3.org/2000/svg"><g><g><path d="m1.75 79.63h124.5v30.368h-124.5z" fill="#0d70b2"/><path d="m82.867 101.748h-71.117a1.75 1.75 0 0 1 0-3.5h71.117a1.75 1.75 0 0 1 0 3.5z" fill="#e1e4fb"/><path d="m82.867 91.38h-71.117a1.75 1.75 0 0 1 0-3.5h71.117a1.75 1.75 0 1 1 0 3.5z" fill="#e1e4fb"/><path d="m17.376 121.25a5.626 5.626 0 0 1 -5.626-5.626v-5.624h11.25v5.626a5.626 5.626 0 0 1 -5.624 5.624z" fill="#1689fc"/><path d="m110.624 121.25a5.626 5.626 0 0 0 5.626-5.626v-5.624h-11.25v5.626a5.626 5.626 0 0 0 5.624 5.624z" fill="#1689fc"/><path d="m112.231 79.63h-10.439l14.345-68.813a5.109 5.109 0 0 1 5-4.067 5.11 5.11 0 0 1 5 6.152z" fill="#c5c9f7"/><path d="m15.769 79.63h10.439l-14.345-68.813a5.11 5.11 0 0 0 -5-4.067 5.11 5.11 0 0 0 -5 6.152z" fill="#c5c9f7"/><path d="m111.066 100h-13.007a5.184 5.184 0 0 1 -5.184-5.184 5.184 5.184 0 0 1 5.184-5.184h13.007a5.184 5.184 0 0 1 5.184 5.184 5.184 5.184 0 0 1 -5.184 5.184z" fill="#fedb41"/><g fill="#00ddc1"><circle cx="64" cy="58.997" r="5.497"/><path d="m53.047 49.794a1.75 1.75 0 0 1 -1.237-2.987 17.221 17.221 0 0 1 24.355-.025 1.75 1.75 0 1 1 -2.47 2.479 13.722 13.722 0 0 0 -19.411.021 1.746 1.746 0 0 1 -1.237.512z"/><path d="m45.979 42.727a1.751 1.751 0 0 1 -1.237-2.988 27.206 27.206 0 0 1 38.492-.024 1.75 1.75 0 1 1 -2.472 2.477 23.706 23.706 0 0 0 -33.545.022 1.745 1.745 0 0 1 -1.238.513z"/><path d="m38.912 35.659a1.751 1.751 0 0 1 -1.238-2.988 37.191 37.191 0 0 1 52.626-.024 1.75 1.75 0 1 1 -2.472 2.477 33.692 33.692 0 0 0 -47.681.022 1.743 1.743 0 0 1 -1.235.513z"/></g></g><g><path d="m126.25 77.88h-11.867l13.471-64.62a6.86 6.86 0 1 0 -13.431-2.8l-3.152 15.121a1.75 1.75 0 1 0 3.427.713l3.152-15.12a3.359 3.359 0 1 1 6.577 1.371l-13.619 65.335h-6.864l2.717-13.029a1.75 1.75 0 0 0 -3.427-.714l-2.865 13.743h-72.738l-14.054-67.42a6.86 6.86 0 0 0 -13.431 2.8l13.47 64.62h-11.866a1.751 1.751 0 0 0 -1.75 1.75v30.37a1.751 1.751 0 0 0 1.75 1.75h8.25v3.876a7.376 7.376 0 1 0 14.752 0v-3.876h16.873a1.75 1.75 0 0 0 0-3.5h-38.125v-26.87h121v26.868h-71.453a1.75 1.75 0 0 0 0 3.5h50.2v3.876a7.376 7.376 0 0 0 14.752 0v-3.876h8.25a1.751 1.751 0 0 0 1.751-1.748v-30.37a1.751 1.751 0 0 0 -1.75-1.75zm-105 33.868v3.876a3.876 3.876 0 0 1 -7.752 0v-3.876zm-4.058-33.868-13.619-65.335a3.359 3.359 0 1 1 6.577-1.371l13.906 66.706zm97.308 37.744a3.876 3.876 0 0 1 -7.752 0v-3.876h7.752z"/><path d="m11.75 101.748h71.117a1.75 1.75 0 0 0 0-3.5h-71.117a1.75 1.75 0 0 0 0 3.5z"/><path d="m11.75 91.38h71.117a1.75 1.75 0 1 0 0-3.5h-71.117a1.75 1.75 0 0 0 0 3.5z"/><path d="m107.608 51.729a1.839 1.839 0 0 0 .359.037 1.753 1.753 0 0 0 1.712-1.394l2-9.6a1.75 1.75 0 0 0 -3.427-.714l-2 9.6a1.751 1.751 0 0 0 1.356 2.071z"/><path d="m111.066 101.748a6.934 6.934 0 0 0 0-13.868h-13.007a6.934 6.934 0 1 0 0 13.868zm-16.441-6.934a3.437 3.437 0 0 1 3.434-3.434h13.007a3.434 3.434 0 0 1 0 6.868h-13.007a3.438 3.438 0 0 1 -3.434-3.434z"/><path d="m56.753 59a7.247 7.247 0 1 0 7.247-7.25 7.255 7.255 0 0 0 -7.247 7.25zm10.994 0a3.747 3.747 0 1 1 -3.747-3.75 3.751 3.751 0 0 1 3.747 3.75z"/><path d="m76.17 49.256a1.749 1.749 0 0 0 0-2.474 17.221 17.221 0 0 0 -24.355.025 1.75 1.75 0 0 0 2.474 2.475 13.722 13.722 0 0 1 19.411-.021 1.749 1.749 0 0 0 2.47-.005z"/><path d="m83.237 42.19a1.751 1.751 0 0 0 0-2.475 27.206 27.206 0 0 0 -38.492.024 1.75 1.75 0 1 0 2.475 2.475 23.706 23.706 0 0 1 33.545-.022 1.749 1.749 0 0 0 2.472-.002z"/><path d="m38.912 35.659a1.743 1.743 0 0 0 1.237-.513 33.692 33.692 0 0 1 47.681-.022 1.75 1.75 0 1 0 2.47-2.477 37.191 37.191 0 0 0 -52.628.024 1.751 1.751 0 0 0 1.238 2.988z"/></g></g></svg>